<svg width="25" height="25" viewBox="0 0 25 25" fill="none" xmlns="http://www.w3.org/2000/svg">
<g id="calendar ">
<path id="Vector" d="M12.6641 19.5C12.8618 19.5 13.0552 19.4414 13.2196 19.3315C13.3841 19.2216 13.5123 19.0654 13.5879 18.8827C13.6636 18.7 13.6834 18.4989 13.6448 18.3049C13.6063 18.1109 13.511 17.9327 13.3712 17.7929C13.2313 17.653 13.0531 17.5578 12.8592 17.5192C12.6652 17.4806 12.4641 17.5004 12.2814 17.5761C12.0987 17.6518 11.9425 17.78 11.8326 17.9444C11.7227 18.1089 11.6641 18.3022 11.6641 18.5C11.6641 18.7652 11.7694 19.0196 11.957 19.2071C12.1445 19.3946 12.3988 19.5 12.6641 19.5ZM17.6641 19.5C17.8618 19.5 18.0552 19.4414 18.2196 19.3315C18.3841 19.2216 18.5123 19.0654 18.5879 18.8827C18.6636 18.7 18.6834 18.4989 18.6448 18.3049C18.6063 18.1109 18.511 17.9327 18.3712 17.7929C18.2313 17.653 18.0531 17.5578 17.8592 17.5192C17.6652 17.4806 17.4641 17.5004 17.2814 17.5761C17.0987 17.6518 16.9425 17.78 16.8326 17.9444C16.7227 18.1089 16.6641 18.3022 16.6641 18.5C16.6641 18.7652 16.7694 19.0196 16.957 19.2071C17.1445 19.3946 17.3988 19.5 17.6641 19.5ZM17.6641 15.5C17.8618 15.5 18.0552 15.4414 18.2196 15.3315C18.3841 15.2216 18.5123 15.0654 18.5879 14.8827C18.6636 14.7 18.6834 14.4989 18.6448 14.3049C18.6063 14.1109 18.511 13.9327 18.3712 13.7929C18.2313 13.653 18.0531 13.5578 17.8592 13.5192C17.6652 13.4806 17.4641 13.5004 17.2814 13.5761C17.0987 13.6518 16.9425 13.78 16.8326 13.9444C16.7227 14.1089 16.6641 14.3022 16.6641 14.5C16.6641 14.7652 16.7694 15.0196 16.957 15.2071C17.1445 15.3946 17.3988 15.5 17.6641 15.5ZM12.6641 15.5C12.8618 15.5 13.0552 15.4414 13.2196 15.3315C13.3841 15.2216 13.5123 15.0654 13.5879 14.8827C13.6636 14.7 13.6834 14.4989 13.6448 14.3049C13.6063 14.1109 13.511 13.9327 13.3712 13.7929C13.2313 13.653 13.0531 13.5578 12.8592 13.5192C12.6652 13.4806 12.4641 13.5004 12.2814 13.5761C12.0987 13.6518 11.9425 13.78 11.8326 13.9444C11.7227 14.1089 11.6641 14.3022 11.6641 14.5C11.6641 14.7652 11.7694 15.0196 11.957 15.2071C12.1445 15.3946 12.3988 15.5 12.6641 15.5ZM19.6641 3.5H18.6641V2.5C18.6641 2.23478 18.5587 1.98043 18.3712 1.79289C18.1836 1.60536 17.9293 1.5 17.6641 1.5C17.3988 1.5 17.1445 1.60536 16.957 1.79289C16.7694 1.98043 16.6641 2.23478 16.6641 2.5V3.5H8.66406V2.5C8.66406 2.23478 8.55871 1.98043 8.37117 1.79289C8.18363 1.60536 7.92928 1.5 7.66406 1.5C7.39885 1.5 7.14449 1.60536 6.95696 1.79289C6.76942 1.98043 6.66406 2.23478 6.66406 2.5V3.5H5.66406C4.86841 3.5 4.10535 3.81607 3.54274 4.37868C2.98013 4.94129 2.66406 5.70435 2.66406 6.5V20.5C2.66406 21.2956 2.98013 22.0587 3.54274 22.6213C4.10535 23.1839 4.86841 23.5 5.66406 23.5H19.6641C20.4597 23.5 21.2228 23.1839 21.7854 22.6213C22.348 22.0587 22.6641 21.2956 22.6641 20.5V6.5C22.6641 5.70435 22.348 4.94129 21.7854 4.37868C21.2228 3.81607 20.4597 3.5 19.6641 3.5ZM20.6641 20.5C20.6641 20.7652 20.5587 21.0196 20.3712 21.2071C20.1836 21.3946 19.9293 21.5 19.6641 21.5H5.66406C5.39885 21.5 5.14449 21.3946 4.95696 21.2071C4.76942 21.0196 4.66406 20.7652 4.66406 20.5V11.5H20.6641V20.5ZM20.6641 9.5H4.66406V6.5C4.66406 6.23478 4.76942 5.98043 4.95696 5.79289C5.14449 5.60536 5.39885 5.5 5.66406 5.5H6.66406V6.5C6.66406 6.76522 6.76942 7.01957 6.95696 7.20711C7.14449 7.39464 7.39885 7.5 7.66406 7.5C7.92928 7.5 8.18363 7.39464 8.37117 7.20711C8.55871 7.01957 8.66406 6.76522 8.66406 6.5V5.5H16.6641V6.5C16.6641 6.76522 16.7694 7.01957 16.957 7.20711C17.1445 7.39464 17.3988 7.5 17.6641 7.5C17.9293 7.5 18.1836 7.39464 18.3712 7.20711C18.5587 7.01957 18.6641 6.76522 18.6641 6.5V5.5H19.6641C19.9293 5.5 20.1836 5.60536 20.3712 5.79289C20.5587 5.98043 20.6641 6.23478 20.6641 6.5V9.5ZM7.66406 15.5C7.86184 15.5 8.05518 15.4414 8.21963 15.3315C8.38408 15.2216 8.51225 15.0654 8.58794 14.8827C8.66363 14.7 8.68343 14.4989 8.64485 14.3049C8.60626 14.1109 8.51102 13.9327 8.37117 13.7929C8.23132 13.653 8.05313 13.5578 7.85915 13.5192C7.66517 13.4806 7.46411 13.5004 7.28138 13.5761C7.09865 13.6518 6.94247 13.78 6.83259 13.9444C6.72271 14.1089 6.66406 14.3022 6.66406 14.5C6.66406 14.7652 6.76942 15.0196 6.95696 15.2071C7.14449 15.3946 7.39885 15.5 7.66406 15.5ZM7.66406 19.5C7.86184 19.5 8.05518 19.4414 8.21963 19.3315C8.38408 19.2216 8.51225 19.0654 8.58794 18.8827C8.66363 18.7 8.68343 18.4989 8.64485 18.3049C8.60626 18.1109 8.51102 17.9327 8.37117 17.7929C8.23132 17.653 8.05313 17.5578 7.85915 17.5192C7.66517 17.4806 7.46411 17.5004 7.28138 17.5761C7.09865 17.6518 6.94247 17.78 6.83259 17.9444C6.72271 18.1089 6.66406 18.3022 6.66406 18.5C6.66406 18.7652 6.76942 19.0196 6.95696 19.2071C7.14449 19.3946 7.39885 19.5 7.66406 19.5Z" fill="#e79895"/>
</g>
</svg>