<svg version="1.1" id="Layer_1" xmlns="http://www.w3.org/2000/svg" xmlns:xlink="http://www.w3.org/1999/xlink" x="0px" y="0px"
	 width="100%" viewBox="0 0 496 496" enable-background="new 0 0 496 496" xml:space="preserve">
<path fill="#000000" opacity="1.000000" stroke="none" 
	d="
M243.650330,215.999878 
	C243.649780,188.334106 243.652206,161.168350 243.647034,134.002594 
	C243.645782,127.350609 243.634354,127.331444 237.139755,127.329720 
	C204.807510,127.321144 172.475250,127.324158 140.143005,127.321541 
	C131.470764,127.320847 127.760437,125.289421 127.799377,120.572044 
	C127.838173,115.872360 131.311005,114.030739 140.368546,114.025208 
	C172.367462,114.005646 204.366394,114.014053 236.365311,114.000702 
	C243.644287,113.997665 243.648880,113.977036 243.649765,106.506889 
	C243.653107,78.174500 243.663681,49.842110 243.642456,21.509741 
	C243.639481,17.556667 244.079590,14.080490 249.124557,13.628812 
	C253.548477,13.232734 256.230530,14.920254 256.597656,19.533699 
	C256.782349,21.854563 256.916321,24.186600 256.918732,26.513741 
	C256.946625,53.512779 256.936737,80.511848 256.957153,107.510895 
	C256.961884,113.779648 257.169342,113.990990 263.408813,113.993690 
	C295.574402,114.007614 327.740021,113.987099 359.905548,114.026421 
	C362.388763,114.029449 364.907135,114.205254 367.345947,114.648705 
	C370.827972,115.281868 372.373169,117.714195 372.250732,121.137199 
	C372.133209,124.422287 370.165283,126.371651 367.098053,127.026207 
	C365.333099,127.402863 363.454102,127.316338 361.626373,127.317047 
	C328.627472,127.329880 295.628235,127.399887 262.630157,127.233658 
	C258.134979,127.211014 256.818848,128.265442 256.829071,133.049759 
	C257.014496,219.713043 256.974365,306.376801 256.981384,393.040466 
	C256.981445,393.540405 256.978119,394.040710 256.958740,394.540192 
	C256.717407,400.756622 254.519394,403.731445 250.118378,403.803772 
	C245.783813,403.875000 243.663254,400.888733 243.661743,394.492889 
	C243.648026,336.661499 243.652176,278.830109 243.651077,220.998703 
	C243.651047,219.499100 243.650696,217.999481 243.650330,215.999878 
z"/>
<path fill="#000000" opacity="1.000000" stroke="none" 
	d="
M206.000000,453.053131 
	C297.624329,453.043091 388.748688,453.027008 479.873016,453.047729 
	C482.689850,453.048370 485.550323,453.190460 488.312714,453.693451 
	C492.002625,454.365234 493.627472,456.940582 493.248749,460.610931 
	C492.894409,464.045013 490.914124,466.039764 487.405426,466.297119 
	C485.913116,466.406586 484.408752,466.368256 482.909851,466.368286 
	C328.314911,466.373810 173.720001,466.377258 19.125071,466.373291 
	C16.794291,466.373230 14.438564,466.475922 12.138714,466.183167 
	C8.869923,465.767120 7.160054,463.490021 6.891077,460.391968 
	C6.619387,457.262634 8.018536,454.874298 11.173266,453.879486 
	C14.071164,452.965729 17.080315,453.002167 20.085684,453.003357 
	C81.890457,453.027344 143.695221,453.038727 206.000000,453.053131 
z"/>
<path fill="#000000" opacity="1.000000" stroke="none" 
	d="
M196.179779,445.108093 
	C177.748932,444.164246 159.795120,443.245178 141.841171,442.328888 
	C110.092125,440.708557 78.343681,439.076233 46.593445,437.479645 
	C37.947868,437.044891 29.297392,436.704742 20.647991,436.349792 
	C14.317863,436.089966 11.758505,433.440765 12.563957,427.225250 
	C14.783126,410.100372 17.090162,392.985321 19.568958,375.896362 
	C20.679251,368.241913 23.791185,366.646179 31.488194,369.306702 
	C56.970078,378.114624 82.436195,386.968140 107.914230,395.787201 
	C142.356628,407.709229 176.805695,419.611969 211.248352,431.533203 
	C215.507523,433.007355 220.343002,434.106445 219.831512,440.157715 
	C219.474136,444.385712 216.741165,445.529877 208.649506,445.358490 
	C204.652130,445.273834 200.654358,445.208282 196.179779,445.108093 
M145.058151,429.261414 
	C151.282669,429.261414 157.507187,429.261414 164.235519,429.261414 
	C120.007149,413.984833 76.123146,398.827179 31.761587,383.504578 
	C29.944159,396.346863 28.268793,408.315979 26.542124,420.277710 
	C26.190577,422.713104 27.250525,423.541656 29.556332,423.653473 
	C49.478123,424.619446 69.395248,425.681885 89.317490,426.638092 
	C107.585464,427.514923 125.858047,428.295715 145.058151,429.261414 
z"/>
<path fill="#000000" opacity="1.000000" stroke="none" 
	d="
M371.221436,403.117493 
	C404.299561,391.637238 437.011963,380.291687 469.744812,369.005371 
	C476.382080,366.716766 479.972900,368.805298 481.011780,375.847839 
	C482.926270,388.826050 484.547821,401.847412 486.301849,414.849396 
	C486.856384,418.960175 487.432587,423.068176 488.019562,427.174469 
	C488.785797,432.534882 486.139496,436.021851 480.765900,436.286987 
	C452.331146,437.689941 423.890472,438.973083 395.456329,440.387390 
	C365.527466,441.876099 335.604370,443.481110 305.676910,444.997894 
	C300.020996,445.284515 294.355286,445.372528 288.695862,445.596344 
	C285.116180,445.737885 281.791290,445.211456 280.854279,441.113617 
	C279.885529,436.876984 281.842865,434.079590 285.923859,432.663788 
	C299.604126,427.917847 313.266266,423.119507 326.950195,418.384125 
	C341.579010,413.321747 356.224640,408.308075 371.221436,403.117493 
M356.542114,422.186035 
	C349.234497,424.723022 341.926910,427.259979 333.581451,430.157227 
	C347.307220,429.605225 359.883545,429.218445 372.446381,428.570526 
	C402.491974,427.020935 432.527466,425.273743 462.574982,423.763916 
	C473.774231,423.201172 473.926422,423.384216 472.600555,412.270996 
	C471.484161,402.913635 469.986511,393.601746 468.541779,383.455841 
	C431.008179,396.425140 394.140961,409.164154 356.542114,422.186035 
z"/>
<path fill="#000000" opacity="1.000000" stroke="none" 
	d="
M56.257473,333.479706 
	C59.349674,327.840729 62.013065,327.086639 67.837120,330.362854 
	C84.238892,339.589447 100.579796,348.924286 116.936592,358.230682 
	C138.796951,370.668457 160.649414,383.120087 182.506592,395.563446 
	C183.375046,396.057892 184.309464,396.453674 185.123596,397.023376 
	C188.376465,399.299683 189.881073,402.367340 187.917755,406.048859 
	C185.912094,409.809845 182.335617,410.248901 178.859406,408.477936 
	C173.076019,405.531464 167.488815,402.197723 161.838058,398.993500 
	C128.659546,380.179688 95.489090,361.351624 62.307835,342.542633 
	C58.873718,340.596008 55.613640,338.582062 56.257473,333.479706 
z"/>
<path fill="#000000" opacity="1.000000" stroke="none" 
	d="
M398.069275,365.154785 
	C374.309540,378.640137 350.876099,391.955536 327.434357,405.256287 
	C325.409698,406.405060 323.379761,407.565735 321.265259,408.530121 
	C317.775360,410.121857 314.530945,409.553345 312.582855,406.172729 
	C310.515015,402.584320 311.658447,399.291840 315.109283,397.160309 
	C319.777496,394.276886 324.609680,391.657745 329.384674,388.948486 
	C363.248230,369.734619 397.102814,350.504944 430.991425,331.335388 
	C437.754211,327.509979 441.277924,327.829987 443.455139,332.075806 
	C445.513336,336.089508 443.807404,339.176208 437.458008,342.790344 
	C424.442932,350.198578 411.415588,357.585297 398.069275,365.154785 
z"/>
</svg>