<svg version="1.1" id="Layer_1" xmlns="http://www.w3.org/2000/svg" xmlns:xlink="http://www.w3.org/1999/xlink" x="0px" y="0px"
	 width="100%" viewBox="0 0 500 500" enable-background="new 0 0 500 500" xml:space="preserve">
<path fill="none" opacity="1.000000" stroke="#000000" stroke-linecap="round" stroke-linejoin="round" stroke-width="4.000000"
	d="
M112.500000,213.500000 
	C150.000748,213.500000 187.501480,213.500000 225.500000,213.500000 
	C225.500000,303.999390 225.500000,394.000610 225.500000,484.250000 
	C246.000000,484.250000 266.000000,484.250000 286.500000,484.250000 
	C286.500000,394.000610 286.500000,303.999390 286.500000,213.500000 
	C288.655945,213.500000 290.327972,213.500000 292.000000,213.500000 
	C327.666656,213.500000 363.333344,213.510849 398.999969,213.465607 
	C400.656616,213.463516 402.336243,213.379944 404.021088,213.165710 
	C406.310547,212.874542 407.079346,211.760559 406.953186,210.003357 
	C405.888702,195.175140 406.802429,180.331970 406.512482,165.499756 
	C406.430939,161.328491 406.500000,157.154282 406.500000,152.500000 
	C366.334747,152.500000 326.665253,152.500000 286.500000,152.500000 
	C286.500000,112.334732 286.500000,72.665268 286.500000,33.155712 
	C283.229706,32.130917 280.385529,31.979834 277.499969,31.985289 
	C261.333374,32.015850 245.166672,32.006767 229.000000,31.993444 
	C226.253891,31.991182 225.377838,33.219635 225.434006,36.001331 
	C225.612350,44.831062 225.500000,53.666668 225.500000,62.500000 
	C225.500000,90.666664 225.500000,118.833336 225.500000,147.000000 
	C225.500000,148.683334 225.500000,150.366669 225.500000,152.500000 
	C185.334732,152.500000 145.665268,152.500000 105.750000,152.500000 
	C105.750000,172.916672 105.750000,192.833328 105.750000,213.097565 
	C108.023224,212.275940 109.937012,214.428436 112.000000,213.000000 
"/>
</svg>