<?xml version="1.0" standalone="no"?>
<!DOCTYPE svg PUBLIC "-//W3C//DTD SVG 20010904//EN"
 "http://www.w3.org/TR/2001/REC-SVG-20010904/DTD/svg10.dtd">
<svg version="1.0" xmlns="http://www.w3.org/2000/svg"
 width="512.000000pt" height="512.000000pt" viewBox="0 0 512.000000 512.000000"
 preserveAspectRatio="xMidYMid meet">

<g transform="translate(0.000000,512.000000) scale(0.100000,-0.100000)"
fill="#000" stroke="none">
<path d="M392 4286 c-29 -8 -56 -16 -59 -20 -4 -4 449 -463 1007 -1020 1090
-1087 1043 -1045 1171 -1069 76 -14 174 9 244 58 61 42 2042 2021 2033 2031
-4 3 -33 13 -65 20 -83 20 -4250 19 -4331 0z"/>
<path d="M149 4068 c-12 -28 -14 -263 -14 -1513 0 -1305 2 -1483 15 -1507 l15
-28 770 770 770 770 -771 771 -771 771 -14 -34z"/>
<path d="M4185 3330 l-770 -770 770 -770 770 -770 15 28 c13 24 15 202 15
1512 0 1310 -2 1488 -15 1512 l-15 28 -770 -770z"/>
<path d="M1090 1625 c-420 -420 -761 -767 -758 -771 4 -3 33 -13 65 -20 86
-20 4240 -20 4326 0 32 7 61 17 65 20 7 8 -1518 1536 -1532 1536 -6 0 -89 -79
-186 -175 -155 -153 -186 -179 -251 -210 -81 -38 -187 -65 -259 -65 -72 0
-178 27 -259 65 -65 31 -96 57 -251 210 -97 96 -180 175 -186 175 -5 0 -353
-344 -774 -765z"/>
</g>
</svg>
