<svg version="1.1" id="Layer_1" xmlns="http://www.w3.org/2000/svg" xmlns:xlink="http://www.w3.org/1999/xlink" x="0px" y="0px"
	 width="100%" viewBox="0 0 500 281" enable-background="new 0 0 500 281" xml:space="preserve">
<path fill="#000000" opacity="1.000000" stroke="none" 
	d="
M290.000000,282.000000 
	C193.333344,282.000000 97.166702,282.000000 1.000039,282.000000 
	C1.000026,188.333374 1.000026,94.666733 1.000013,1.000077 
	C167.666611,1.000051 334.333221,1.000051 500.999878,1.000026 
	C500.999908,94.666588 500.999908,188.333176 500.999939,281.999878 
	C430.833344,282.000000 360.666656,282.000000 290.000000,282.000000 
M322.039795,199.452896 
	C321.686340,200.022018 321.332886,200.591125 320.979401,201.160248 
	C321.157410,201.299606 321.335419,201.438965 321.513458,201.578323 
	C322.042480,201.083542 322.571533,200.588745 323.592072,199.949417 
	C323.757812,199.663574 323.923523,199.377731 324.790100,199.024902 
	C326.885620,196.708771 328.981171,194.392624 331.776794,191.795593 
	C335.208374,186.541046 334.732147,181.611816 330.429382,179.310242 
	C332.491943,183.426208 332.890594,187.435577 329.901306,191.866089 
	C327.647308,194.122375 325.393280,196.378677 322.970795,198.747879 
	C322.970795,198.747879 322.723328,199.067017 322.039795,199.452896 
M310.973236,209.607925 
	C310.772186,210.209595 310.571136,210.811264 310.370087,211.412933 
	C310.936615,210.963211 311.503174,210.513489 312.584259,209.927170 
	C312.749817,209.626877 312.915344,209.326569 313.819336,209.017410 
	C315.100006,207.885849 316.380707,206.754288 317.661407,205.622726 
	C317.359650,205.306320 317.057892,204.989899 316.756134,204.673492 
	C315.150543,206.113937 313.544922,207.554367 311.736633,209.019669 
	C311.736633,209.019669 311.607483,209.177887 310.973236,209.607925 
M331.038635,236.419754 
	C330.406281,236.986664 329.773926,237.553574 328.240417,237.772812 
	C311.331848,237.772812 294.423309,237.772812 277.514740,237.772812 
	C278.053131,238.771179 278.626923,238.983154 279.200958,238.983810 
	C294.993225,239.001892 310.785583,239.013260 326.577667,238.956146 
	C327.391632,238.953201 328.203369,238.333313 329.715088,237.999054 
	C330.503723,237.690933 331.292389,237.382828 332.575073,236.936478 
	C332.742523,236.650970 332.909973,236.365479 333.797241,235.712158 
	C335.609619,230.024979 336.018555,224.398178 332.876434,218.351837 
	C332.331055,218.311020 331.785675,218.270203 331.240295,218.229401 
	C331.557068,218.670258 331.873871,219.111099 332.583527,220.251709 
	C334.515289,225.484970 334.591980,230.655624 331.947449,235.839844 
	C331.947449,235.839844 331.737732,236.062134 331.038635,236.419754 
M256.999573,236.590210 
	C256.440491,236.883347 255.881393,237.176483 255.322311,237.469620 
	C255.431305,237.701843 255.540283,237.934067 255.649277,238.166290 
	C256.455536,237.798431 257.261780,237.430573 258.570923,236.941376 
	C258.738983,236.653717 258.907043,236.366058 259.781219,235.769379 
	C263.118988,229.438416 262.843170,223.679932 260.276672,221.556259 
	C259.643738,225.715469 258.887817,230.682785 257.885803,235.769608 
	C257.727966,235.877869 257.624084,236.024368 256.999573,236.590210 
M70.660088,158.004822 
	C70.783936,158.172623 70.944550,158.290146 71.595085,159.030655 
	C75.804283,163.551926 70.772896,167.250778 70.006409,171.912292 
	C76.030464,165.283279 76.350342,162.555618 71.937706,157.418945 
	C71.645424,157.259872 71.353142,157.100800 70.841431,156.298218 
	C70.011658,155.840652 69.181885,155.383072 68.352119,154.925507 
	C68.231453,155.127151 68.110794,155.328796 67.990128,155.530457 
	C68.834015,156.265732 69.677902,157.001007 70.660088,158.004822 
M202.028427,236.566833 
	C201.308151,236.870804 200.587891,237.174759 199.867615,237.478729 
	C199.938538,237.691818 200.009445,237.904907 200.080368,238.118011 
	C201.075516,237.765549 202.070663,237.413086 203.572510,236.939896 
	C203.735580,236.648178 203.898636,236.356445 204.815002,235.733109 
	C205.211472,234.388962 205.946503,233.046432 205.952896,231.700424 
	C206.031815,215.112823 206.020767,198.524643 205.963654,181.936859 
	C205.960220,180.939255 205.370392,179.943680 205.006027,178.283859 
	C204.520142,177.898239 204.034241,177.512604 203.548355,177.126984 
	C203.796356,177.913712 204.044357,178.700439 204.803314,180.222321 
	C204.867294,197.000534 204.981262,213.778931 204.917389,230.556671 
	C204.911041,232.221771 203.819565,233.882751 202.947601,235.708832 
	C202.769836,235.845871 202.639603,236.018723 202.028427,236.566833 
M75.735886,225.836685 
	C76.185883,224.583115 76.635880,223.329544 77.733292,221.818771 
	C77.851288,220.907501 77.969284,219.996216 78.822403,218.709061 
	C80.915024,210.363083 80.714516,202.389648 75.151787,195.272461 
	C79.028023,202.749359 78.732101,210.600098 77.020264,219.117615 
	C76.807961,219.862793 76.595657,220.607956 76.046852,221.946136 
	C75.448677,223.144958 74.850494,224.343765 74.008484,226.043182 
	C74.101822,226.298462 74.195152,226.553741 74.288483,226.809021 
	C74.552200,226.567169 74.815918,226.325317 75.735886,225.836685 
M361.174744,83.699005 
	C360.392578,82.734528 359.610443,81.770050 358.828278,80.805573 
	C358.594543,81.021606 358.360809,81.237633 358.127075,81.453667 
	C359.052856,82.666061 359.978668,83.878464 361.012115,85.762642 
	C361.970245,87.211372 362.928375,88.660110 363.991180,90.781044 
	C364.962036,92.217857 365.932892,93.654678 367.015045,95.780510 
	C368.141388,97.623154 369.267761,99.465797 370.394135,101.308441 
	C370.751678,101.100235 371.109192,100.892036 371.466736,100.683838 
	C370.178070,98.529236 368.889374,96.374634 367.176666,93.702499 
	C366.318573,92.209137 365.460480,90.715775 364.177490,88.704460 
	C363.318146,87.209534 362.458801,85.714600 361.174744,83.699005 
M398.068512,234.412216 
	C396.242859,235.528091 394.417175,236.643967 392.591492,237.759842 
	C392.784271,238.087830 392.977020,238.415802 393.169800,238.743774 
	C395.143524,237.523865 397.117249,236.303955 399.582581,234.942734 
	C399.750336,234.658218 399.918060,234.373703 400.809998,233.748871 
	C403.233398,228.769241 402.383331,224.509491 397.869812,219.338394 
	C397.322296,219.241226 396.774811,219.144073 395.345978,218.890518 
	C396.499115,219.854965 396.949554,220.231689 397.818451,221.194702 
	C400.463440,225.162216 402.230499,229.215561 398.949310,233.851654 
	C398.949310,233.851654 398.751221,234.047485 398.068512,234.412216 
M210.910812,131.668991 
	C206.789520,132.300400 202.668228,132.931808 198.546936,133.563217 
	C198.620972,133.977097 198.694992,134.390991 198.769028,134.804871 
	C203.202301,133.891006 207.635574,132.977142 212.573410,131.937637 
	C212.735611,131.646088 212.897797,131.354538 213.771973,130.774307 
	C214.515427,128.548080 215.842438,126.336983 215.900574,124.093002 
	C216.142563,114.752647 216.002350,105.402382 216.002350,96.055756 
	C214.839539,98.132179 214.107758,100.388199 214.055649,102.659805 
	C213.896118,109.613449 214.143845,116.577858 213.916458,123.527718 
	C213.839355,125.883896 212.818634,128.209213 211.954208,130.697830 
	C211.782120,130.827164 211.659424,130.993011 210.910812,131.668991 
M70.235939,65.150658 
	C67.821350,67.272621 65.406761,69.394585 63.531700,71.042404 
	C67.455139,72.178368 69.592430,68.797188 72.353577,65.103622 
	C73.829712,62.013584 76.802391,59.047733 73.842880,55.444504 
	C72.780838,58.794830 71.819229,61.828331 70.235939,65.150658 
M324.825165,128.753067 
	C327.267639,123.677948 326.270935,118.762512 323.190186,116.617882 
	C323.190186,120.138443 323.190186,124.289062 322.693085,128.877502 
	C320.918060,130.156097 319.143005,131.434677 317.178040,132.850098 
	C320.361725,133.030624 323.211334,132.991531 324.825165,128.753067 
M261.866302,176.332733 
	C261.312408,176.235336 260.758514,176.137939 259.352570,175.890717 
	C260.475067,176.846161 260.922577,177.227066 261.835510,178.255463 
	C262.299500,183.551605 262.763458,188.847763 263.185059,193.660477 
	C266.282928,189.517151 265.937744,181.311630 261.866302,176.332733 
M247.111969,217.659897 
	C247.654144,217.701050 248.196335,217.742203 248.738510,217.783356 
	C248.433823,217.343613 248.129120,216.903854 247.280838,215.807220 
	C246.723694,209.671982 246.166550,203.536728 245.624023,197.562271 
	C251.445724,195.999527 257.098083,198.652634 262.153229,195.325409 
	C256.186798,195.668030 250.733566,195.981171 244.988831,196.311050 
	C244.988831,200.910217 244.773514,205.381653 245.073730,209.818192 
	C245.240051,212.276443 246.268478,214.676346 247.111969,217.659897 
M399.806458,212.014587 
	C407.638214,208.261490 407.144501,190.235992 401.413727,188.305069 
	C405.758026,198.656281 404.806061,205.741776 397.779846,211.780899 
	C397.218811,211.950546 396.657776,212.120178 396.096771,212.289825 
	C396.199768,212.582596 396.302734,212.875381 396.405731,213.168152 
	C397.296509,212.806625 398.187256,212.445114 399.806458,212.014587 
M318.803680,109.019081 
	C321.546082,107.352646 325.483337,106.336617 326.809937,103.899498 
	C331.023438,96.158913 329.998779,88.245140 324.886871,80.332954 
	C324.342590,80.286507 323.798309,80.240067 323.254028,80.193626 
	C323.552582,80.636215 323.851135,81.078796 324.592896,82.152481 
	C325.223450,83.640533 325.964264,85.092384 326.466827,86.622490 
	C329.947968,97.221207 326.507355,106.636253 316.895630,108.652969 
	C307.288940,108.652969 297.682281,108.652969 286.849426,108.652969 
	C288.620361,111.056274 289.428467,112.152962 290.932617,114.194199 
	C290.765778,112.015900 290.690979,111.039246 290.611908,110.006744 
	C298.211487,110.006744 305.658966,110.064926 313.104156,109.961388 
	C314.743164,109.938599 316.374176,109.341858 318.803680,109.019081 
M75.102203,122.364746 
	C76.679993,118.734146 79.144165,115.222000 79.648506,111.447952 
	C80.655327,103.913712 80.847313,96.178337 74.901443,89.361717 
	C74.632805,89.322472 74.364159,89.283218 74.095520,89.243965 
	C74.140549,89.642708 74.185577,90.041451 74.657150,91.059875 
	C80.443672,101.490448 79.023949,111.742744 73.269638,122.160454 
	C71.922226,123.657646 70.574814,125.154839 69.227402,126.652031 
	C69.580338,126.964088 69.933266,127.276146 70.286201,127.588203 
	C71.701096,126.005623 73.115997,124.423042 75.102203,122.364746 
M107.871216,131.991623 
	C108.581284,130.000168 109.886955,128.014816 109.907394,126.016312 
	C110.074104,109.713982 110.011185,93.409172 109.965172,77.105263 
	C109.963165,76.398170 109.445206,75.692535 109.167595,74.986221 
	C108.681465,76.687080 108.972954,78.195984 108.976456,79.705566 
	C109.010834,94.512215 109.113022,109.320786 108.881615,124.123894 
	C108.843719,126.548248 107.276352,128.948700 105.853157,131.761703 
	C105.306816,131.997787 104.760468,132.233856 104.214127,132.469925 
	C104.332161,132.722717 104.450188,132.975494 104.568222,133.228287 
	C105.395203,132.836823 106.222191,132.445343 107.871216,131.991623 
M366.811615,161.019562 
	C367.878052,159.919052 369.315308,158.996353 369.943756,157.685822 
	C372.126770,153.133377 374.087463,148.470551 376.024231,143.804688 
	C378.743958,137.252640 381.366516,130.660294 384.720581,123.836304 
	C391.140076,109.909607 397.724426,96.054062 403.800354,81.979042 
	C404.705658,79.881874 403.219696,76.752434 402.863708,74.266029 
	C402.084656,78.114632 401.929871,81.747383 400.610931,84.891830 
	C395.259094,97.651169 389.549744,110.260529 383.358185,123.296165 
	C379.298401,132.331757 375.338318,141.414169 371.128510,150.379303 
	C369.502106,153.842880 367.309113,157.040421 364.717468,160.824310 
	C362.945129,160.949478 361.172791,161.074646 359.400452,161.199814 
	C359.423187,161.541214 359.445953,161.882614 359.468719,162.223999 
	C361.670898,161.843033 363.873077,161.462067 366.811615,161.019562 
M184.001465,98.704453 
	C183.502518,81.685318 183.003571,64.666191 182.504623,47.647057 
	C182.232391,47.648342 181.960159,47.649628 181.687927,47.650913 
	C181.687927,75.166542 181.687927,102.682175 181.687927,130.197800 
	C185.458130,120.232452 183.375717,109.852585 184.001465,98.704453 
M436.011292,203.872864 
	C436.303436,202.177612 436.595581,200.482346 436.887726,198.787094 
	C436.426636,198.660416 435.965576,198.533752 435.504486,198.407074 
	C435.010681,200.608063 434.138031,202.800888 434.090454,205.011490 
	C433.911194,213.336746 434.130646,221.671326 433.905212,229.994400 
	C433.842621,232.306030 432.759277,234.590012 432.044373,237.259735 
	C434.783875,235.573196 436.035217,233.127853 436.021790,229.787247 
	C435.988312,221.458405 436.011017,213.129333 436.011292,203.872864 
M254.777802,92.118752 
	C255.295151,104.826164 255.812500,117.533577 256.288361,129.221344 
	C260.153809,122.700806 257.448700,88.634804 251.990860,84.533165 
	C252.760330,86.869980 253.515228,89.162605 254.777802,92.118752 
M87.999420,123.230980 
	C87.999420,107.641029 87.999420,92.051086 87.999420,76.461136 
	C87.758980,76.463264 87.518547,76.465393 87.278107,76.467522 
	C87.278107,93.487160 87.278107,110.506798 87.278107,127.526436 
	C87.451637,127.531212 87.625175,127.535988 87.798706,127.540756 
	C87.865608,126.412163 87.932510,125.283562 87.999420,123.230980 
M412.984344,230.757492 
	C413.095459,231.222214 413.206604,231.686951 413.317719,232.151672 
	C413.448151,232.144531 413.578583,232.137390 413.709015,232.130249 
	C413.709015,215.338257 413.709015,198.546280 413.709015,181.754288 
	C413.474213,181.753296 413.239380,181.752304 413.004578,181.751312 
	C413.004578,197.802414 413.004578,213.853500 412.984344,230.757492 
M243.533829,156.177322 
	C244.022751,158.862930 244.770721,161.532440 244.938843,164.237976 
	C245.180679,168.129761 245.000580,172.047745 245.000580,175.954559 
	C245.832962,175.914291 246.665329,175.874023 247.497711,175.833755 
	C246.852798,169.568344 246.272049,163.294617 245.460648,157.050858 
	C245.382248,156.447556 243.874023,156.030060 243.533829,156.177322 
M48.903049,65.019165 
	C49.339031,64.836342 49.775013,64.653519 50.210995,64.470695 
	C50.101006,64.381714 49.981297,64.205429 49.882442,64.216438 
	C46.852249,64.553841 43.587727,64.315018 40.851402,65.402817 
	C36.815025,67.007431 36.547108,71.265518 39.736263,74.800842 
	C38.346008,68.344894 40.985462,65.266518 48.903049,65.019165 
M370.764191,213.990494 
	C378.003815,213.990494 385.243439,213.990494 392.483063,213.990494 
	C392.474213,213.906677 392.465332,213.822861 392.456482,213.739044 
	C383.057709,213.739044 373.658966,213.739044 364.260223,213.739044 
	C364.279724,214.056778 364.299194,214.374496 364.318695,214.692230 
	C366.155975,214.458405 367.993225,214.224579 370.764191,213.990494 
M233.988831,111.517395 
	C233.988831,116.802292 233.988831,122.087181 233.988831,127.372078 
	C234.219284,127.361565 234.449722,127.351051 234.680176,127.340530 
	C234.680176,117.926384 234.680176,108.512238 234.680176,99.098083 
	C234.449722,99.098816 234.219284,99.099556 233.988831,99.100288 
	C233.988831,102.909927 233.988831,106.719566 233.988831,111.517395 
M458.474518,195.955414 
	C463.278778,190.344238 462.372314,184.105835 460.759430,177.764923 
	C462.049896,184.274460 461.296783,190.251892 456.423218,195.276749 
	C456.852661,195.519638 457.282104,195.762543 458.474518,195.955414 
M207.013885,155.609039 
	C206.365219,153.156067 205.716568,150.703094 205.067902,148.250122 
	C204.848053,148.345673 204.628204,148.441208 204.408356,148.536743 
	C204.408356,153.796326 204.408356,159.055908 204.408356,164.315491 
	C204.698502,164.384872 204.988632,164.454239 205.278778,164.523621 
	C205.857132,161.843948 206.435471,159.164261 207.013885,155.609039 
M305.135040,215.189041 
	C305.202728,215.787979 305.264160,216.910507 305.338989,216.911392 
	C312.050323,216.991684 318.762665,216.985855 325.474945,216.985855 
	C321.678223,216.000580 317.875580,216.168793 314.096252,215.944412 
	C311.346313,215.781158 308.627136,215.099426 305.135040,215.189041 
M296.597565,90.010323 
	C298.229858,89.510536 299.862152,89.010742 301.494446,88.510948 
	C301.335602,88.082130 301.176758,87.653313 301.017883,87.224495 
	C297.600861,88.466164 294.183807,89.707832 290.766754,90.949493 
	C290.963898,91.466164 291.161011,91.982834 291.358124,92.499504 
	C292.832275,91.680794 294.306458,90.862091 296.597565,90.010323 
M250.105499,134.009262 
	C251.438461,133.510986 252.771423,133.012711 254.104385,132.514450 
	C254.009476,132.355545 253.914551,132.196640 253.819641,132.037735 
	C249.341965,132.487076 244.864304,132.936401 240.386627,133.385742 
	C240.392090,133.594177 240.397537,133.802612 240.403000,134.011047 
	C243.331619,134.011047 246.260223,134.011047 250.105499,134.009262 
M217.896667,93.866333 
	C220.782593,93.110397 223.668503,92.354454 226.554428,91.598518 
	C226.436859,91.215965 226.319290,90.833412 226.201721,90.450859 
	C223.582642,91.338364 220.963547,92.225868 217.896667,93.866333 
M192.640671,166.511490 
	C194.127777,166.889572 195.614868,167.267639 197.101974,167.645721 
	C197.197281,167.146820 197.292587,166.647919 197.387878,166.149017 
	C195.991241,166.149017 194.594589,166.149017 192.640671,166.511490 
M446.619446,195.495514 
	C443.766815,195.559464 440.914154,195.623413 438.061523,195.687363 
	C438.094543,196.152863 438.127594,196.618362 438.160614,197.083878 
	C440.761078,196.715576 443.361572,196.347275 446.619446,195.495514 
M288.960510,97.239365 
	C289.465332,95.873672 289.970154,94.507973 290.474945,93.142273 
	C289.992462,93.024757 289.509979,92.907234 289.027496,92.789711 
	C288.807526,94.452484 288.587555,96.115265 288.960510,97.239365 
M176.929581,132.964828 
	C177.925018,132.837387 178.920456,132.709946 179.915909,132.582504 
	C179.849518,132.201080 179.783127,131.819656 179.716721,131.438232 
	C178.586472,131.760254 177.456207,132.082275 176.929581,132.964828 
M398.293671,72.545441 
	C399.162323,72.788902 400.030975,73.032364 400.899628,73.275826 
	C400.957611,72.972588 401.015564,72.669357 401.073547,72.366119 
	C400.354706,72.250893 399.635834,72.135674 398.293671,72.545441 
M65.314964,174.379501 
	C66.166542,174.537216 67.018120,174.694931 67.869698,174.852646 
	C67.897926,174.498749 67.926163,174.144852 67.954391,173.790939 
	C67.309860,173.861008 66.665329,173.931076 65.314964,174.379501 
M459.541473,176.071335 
	C458.798676,176.125610 458.055847,176.179886 457.313049,176.234146 
	C457.310364,176.495071 457.307678,176.755997 457.304993,177.016922 
	C458.218903,176.925247 459.132782,176.833588 459.541473,176.071335 
M202.671112,165.957779 
	C203.090103,165.687332 203.509109,165.416901 203.928101,165.146439 
	C203.334381,165.205887 202.740646,165.265335 202.671112,165.957779 
M320.795166,115.192276 
	C321.161438,115.116051 321.527710,115.039825 321.893951,114.963608 
	C321.816315,114.714333 321.694672,114.243279 321.667542,114.248657 
	C321.160797,114.349113 320.665283,114.506203 320.795166,115.192276 
z"/>
<path fill="#FEFEFE" opacity="1.000000" stroke="none" 
	d="
M184.001465,99.186539 
	C183.375717,109.852585 185.458130,120.232452 181.687927,130.197800 
	C181.687927,102.682175 181.687927,75.166542 181.687927,47.650913 
	C181.960159,47.649628 182.232391,47.648342 182.504623,47.647057 
	C183.003571,64.666191 183.502518,81.685318 184.001465,99.186539 
z"/>
<path fill="#F6F6F6" opacity="1.000000" stroke="none" 
	d="
M383.972229,122.925201 
	C389.549744,110.260529 395.259094,97.651169 400.610931,84.891830 
	C401.929871,81.747383 402.084656,78.114632 402.863708,74.266029 
	C403.219696,76.752434 404.705658,79.881874 403.800354,81.979042 
	C397.724426,96.054062 391.140076,109.909607 384.362610,123.670670 
	C383.993835,123.311752 383.983032,123.118484 383.972229,122.925201 
z"/>
<path fill="#F9F9F9" opacity="1.000000" stroke="none" 
	d="
M436.011230,204.336609 
	C436.011017,213.129333 435.988312,221.458405 436.021790,229.787247 
	C436.035217,233.127853 434.783875,235.573196 432.044373,237.259735 
	C432.759277,234.590012 433.842621,232.306030 433.905212,229.994400 
	C434.130646,221.671326 433.911194,213.336746 434.090454,205.011490 
	C434.138031,202.800888 435.010681,200.608063 435.504486,198.407074 
	C435.965576,198.533752 436.426636,198.660416 436.887726,198.787094 
	C436.595581,200.482346 436.303436,202.177612 436.011230,204.336609 
z"/>
<path fill="#F4F4F4" opacity="1.000000" stroke="none" 
	d="
M383.665222,123.110687 
	C383.983032,123.118484 383.993835,123.311752 384.017639,123.795105 
	C381.366516,130.660294 378.743958,137.252640 376.024231,143.804688 
	C374.087463,148.470551 372.126770,153.133377 369.943756,157.685822 
	C369.315308,158.996353 367.878052,159.919052 366.271240,160.866867 
	C365.612030,160.595840 365.493134,160.477493 365.374268,160.359161 
	C367.309113,157.040421 369.502106,153.842880 371.128510,150.379303 
	C375.338318,141.414169 379.298401,132.331757 383.665222,123.110687 
z"/>
<path fill="#F9F9F9" opacity="1.000000" stroke="none" 
	d="
M254.523972,91.786987 
	C253.515228,89.162605 252.760330,86.869980 251.990860,84.533165 
	C257.448700,88.634804 260.153809,122.700806 256.288361,129.221344 
	C255.812500,117.533577 255.295151,104.826164 254.523972,91.786987 
z"/>
<path fill="#FDFDFD" opacity="1.000000" stroke="none" 
	d="
M212.229126,130.548630 
	C212.818634,128.209213 213.839355,125.883896 213.916458,123.527718 
	C214.143845,116.577858 213.896118,109.613449 214.055649,102.659805 
	C214.107758,100.388199 214.839539,98.132179 216.002350,96.055756 
	C216.002350,105.402382 216.142563,114.752647 215.900574,124.093002 
	C215.842438,126.336983 214.515427,128.548080 213.216949,130.776062 
	C212.661911,130.777802 212.229126,130.548630 212.229126,130.548630 
z"/>
<path fill="#FEFEFE" opacity="1.000000" stroke="none" 
	d="
M106.415878,131.360199 
	C107.276352,128.948700 108.843719,126.548248 108.881615,124.123894 
	C109.113022,109.320786 109.010834,94.512215 108.976456,79.705566 
	C108.972954,78.195984 108.681465,76.687080 109.167595,74.986221 
	C109.445206,75.692535 109.963165,76.398170 109.965172,77.105263 
	C110.011185,93.409172 110.074104,109.713982 109.907394,126.016312 
	C109.886955,128.014816 108.581284,130.000168 107.304382,131.847031 
	C106.737549,131.702438 106.415871,131.360199 106.415878,131.360199 
z"/>
<path fill="#F4F4F4" opacity="1.000000" stroke="none" 
	d="
M75.076111,89.916977 
	C80.847313,96.178337 80.655327,103.913712 79.648506,111.447952 
	C79.144165,115.222000 76.679993,118.734146 74.669868,122.359802 
	C74.123062,122.204323 74.008591,122.053795 73.894119,121.903259 
	C79.023949,111.742744 80.443672,101.490448 74.666855,90.637970 
	C74.676552,90.216064 75.076111,89.916977 75.076111,89.916977 
z"/>
<path fill="#FCFCFC" opacity="1.000000" stroke="none" 
	d="
M203.231720,235.545639 
	C203.819565,233.882751 204.911041,232.221771 204.917389,230.556671 
	C204.981262,213.778931 204.867294,197.000534 204.744507,179.728760 
	C204.685715,179.235214 205.053436,178.947159 205.053436,178.947159 
	C205.370392,179.943680 205.960220,180.939255 205.963654,181.936859 
	C206.020767,198.524643 206.031815,215.112823 205.952896,231.700424 
	C205.946503,233.046432 205.211472,234.388962 204.239395,235.755478 
	C203.663788,235.777847 203.231720,235.545639 203.231720,235.545639 
z"/>
<path fill="#F3F3F3" opacity="1.000000" stroke="none" 
	d="
M325.096802,80.891853 
	C329.998779,88.245140 331.023438,96.158913 326.809937,103.899498 
	C325.483337,106.336617 321.546082,107.352646 318.322296,108.871063 
	C317.840912,108.723053 317.768524,108.399063 317.768524,108.399063 
	C326.507355,106.636253 329.947968,97.221207 326.466827,86.622490 
	C325.964264,85.092384 325.223450,83.640533 324.616943,81.692947 
	C324.792969,81.119553 324.944885,81.005707 325.096802,80.891853 
z"/>
<path fill="#FFFFFF" opacity="1.000000" stroke="none" 
	d="
M87.999420,123.692978 
	C87.932510,125.283562 87.865608,126.412163 87.798706,127.540756 
	C87.625175,127.535988 87.451637,127.531212 87.278107,127.526436 
	C87.278107,110.506798 87.278107,93.487160 87.278107,76.467522 
	C87.518547,76.465393 87.758980,76.463264 87.999420,76.461136 
	C87.999420,92.051086 87.999420,107.641029 87.999420,123.692978 
z"/>
<path fill="#313131" opacity="1.000000" stroke="none" 
	d="
M412.994446,230.331055 
	C413.004578,213.853500 413.004578,197.802414 413.004578,181.751312 
	C413.239380,181.752304 413.474213,181.753296 413.709015,181.754288 
	C413.709015,198.546280 413.709015,215.338257 413.709015,232.130249 
	C413.578583,232.137390 413.448151,232.144531 413.317719,232.151672 
	C413.206604,231.686951 413.095459,231.222214 412.994446,230.331055 
z"/>
<path fill="#FFFFFF" opacity="1.000000" stroke="none" 
	d="
M329.016113,238.000641 
	C328.203369,238.333313 327.391632,238.953201 326.577667,238.956146 
	C310.785583,239.013260 294.993225,239.001892 279.200958,238.983810 
	C278.626923,238.983154 278.053131,238.771179 277.514740,237.772812 
	C294.423309,237.772812 311.331848,237.772812 328.659729,237.916595 
	C329.079041,238.060394 329.016113,238.000641 329.016113,238.000641 
z"/>
<path fill="#F8F8F8" opacity="1.000000" stroke="none" 
	d="
M398.314850,211.369644 
	C404.806061,205.741776 405.758026,198.656281 401.413727,188.305069 
	C407.144501,190.235992 407.638214,208.261490 399.256104,211.865616 
	C398.575439,211.600967 398.445129,211.485306 398.314850,211.369644 
z"/>
<path fill="#F9F9F9" opacity="1.000000" stroke="none" 
	d="
M246.908295,217.102554 
	C246.268478,214.676346 245.240051,212.276443 245.073730,209.818192 
	C244.773514,205.381653 244.988831,200.910217 244.988831,196.311050 
	C250.733566,195.981171 256.186798,195.668030 262.153229,195.325409 
	C257.098083,198.652634 251.445724,195.999527 245.624023,197.562271 
	C246.166550,203.536728 246.723694,209.671982 247.315216,216.283264 
	C247.202499,216.873718 247.055405,216.988129 246.908295,217.102554 
z"/>
<path fill="#F2F2F2" opacity="1.000000" stroke="none" 
	d="
M77.236809,218.565109 
	C78.732101,210.600098 79.028023,202.749359 75.151787,195.272461 
	C80.714516,202.389648 80.915024,210.363083 78.257202,218.742554 
	C77.540268,218.705719 77.388535,218.635406 77.236809,218.565109 
z"/>
<path fill="#FFFFFF" opacity="1.000000" stroke="none" 
	d="
M243.281693,155.851807 
	C243.874023,156.030060 245.382248,156.447556 245.460648,157.050858 
	C246.272049,163.294617 246.852798,169.568344 247.497711,175.833755 
	C246.665329,175.874023 245.832962,175.914291 245.000580,175.954559 
	C245.000580,172.047745 245.180679,168.129761 244.938843,164.237976 
	C244.770721,161.532440 244.022751,158.862930 243.281693,155.851807 
z"/>
<path fill="#FBFBFB" opacity="1.000000" stroke="none" 
	d="
M317.924896,108.866234 
	C316.374176,109.341858 314.743164,109.938599 313.104156,109.961388 
	C305.658966,110.064926 298.211487,110.006744 290.611908,110.006744 
	C290.690979,111.039246 290.765778,112.015900 290.932617,114.194199 
	C289.428467,112.152962 288.620361,111.056274 286.849426,108.652969 
	C297.682281,108.652969 307.288940,108.652969 317.332092,108.526016 
	C317.768524,108.399063 317.840912,108.723053 317.924896,108.866234 
z"/>
<path fill="#F9F9F9" opacity="1.000000" stroke="none" 
	d="
M262.059906,176.931870 
	C265.937744,181.311630 266.282928,189.517151 263.185059,193.660477 
	C262.763458,188.847763 262.299500,183.551605 261.779541,177.767044 
	C261.723541,177.278625 262.059906,176.931870 262.059906,176.931870 
z"/>
<path fill="#F2F2F2" opacity="1.000000" stroke="none" 
	d="
M48.510834,65.021866 
	C40.985462,65.266518 38.346008,68.344894 39.736263,74.800842 
	C36.547108,71.265518 36.815025,67.007431 40.851402,65.402817 
	C43.587727,64.315018 46.852249,64.553841 49.882442,64.216438 
	C49.981297,64.205429 50.101006,64.381714 50.210999,64.470703 
	C49.775013,64.653519 49.339031,64.836342 48.510834,65.021866 
z"/>
<path fill="#A5A5A5" opacity="1.000000" stroke="none" 
	d="
M370.297363,213.990631 
	C367.993225,214.224579 366.155975,214.458405 364.318695,214.692230 
	C364.299194,214.374496 364.279724,214.056778 364.260223,213.739044 
	C373.658966,213.739044 383.057709,213.739044 392.456482,213.739044 
	C392.465332,213.822861 392.474213,213.906677 392.483063,213.990494 
	C385.243439,213.990494 378.003815,213.990494 370.297363,213.990631 
z"/>
<path fill="#F9F9F9" opacity="1.000000" stroke="none" 
	d="
M233.988831,111.023300 
	C233.988831,106.719566 233.988831,102.909927 233.988831,99.100288 
	C234.219284,99.099556 234.449722,99.098816 234.680176,99.098083 
	C234.680176,108.512238 234.680176,117.926384 234.680176,127.340530 
	C234.449722,127.351051 234.219284,127.361565 233.988831,127.372078 
	C233.988831,122.087181 233.988831,116.802292 233.988831,111.023300 
z"/>
<path fill="#F9F9F9" opacity="1.000000" stroke="none" 
	d="
M458.093018,195.980438 
	C457.282104,195.762543 456.852661,195.519638 456.423218,195.276749 
	C461.296783,190.251892 462.049896,184.274460 460.759430,177.764923 
	C462.372314,184.105835 463.278778,190.344238 458.093018,195.980438 
z"/>
<path fill="#FCFCFC" opacity="1.000000" stroke="none" 
	d="
M258.131897,235.650116 
	C258.887817,230.682785 259.643738,225.715469 260.276672,221.556259 
	C262.843170,223.679932 263.118988,229.438416 259.202576,235.794250 
	C258.459930,235.762787 258.295929,235.706451 258.131897,235.650116 
z"/>
<path fill="#F8F8F8" opacity="1.000000" stroke="none" 
	d="
M207.013855,156.046814 
	C206.435471,159.164261 205.857132,161.843948 205.278778,164.523621 
	C204.988632,164.454239 204.698502,164.384872 204.408356,164.315491 
	C204.408356,159.055908 204.408356,153.796326 204.408356,148.536743 
	C204.628204,148.441208 204.848053,148.345673 205.067902,148.250122 
	C205.716568,150.703094 206.365219,153.156067 207.013855,156.046814 
z"/>
<path fill="#F2F2F2" opacity="1.000000" stroke="none" 
	d="
M323.190186,128.439682 
	C323.190186,124.289062 323.190186,120.138443 323.190186,116.617882 
	C326.270935,118.762512 327.267639,123.677948 324.243591,128.751404 
	C323.504761,128.646362 323.347473,128.543015 323.190186,128.439682 
z"/>
<path fill="#FFFFFF" opacity="1.000000" stroke="none" 
	d="
M305.514648,214.918945 
	C308.627136,215.099426 311.346313,215.781158 314.096252,215.944412 
	C317.875580,216.168793 321.678223,216.000580 325.474945,216.985855 
	C318.762665,216.985855 312.050323,216.991684 305.338989,216.911392 
	C305.264160,216.910507 305.202728,215.787979 305.514648,214.918945 
z"/>
<path fill="#F3F3F3" opacity="1.000000" stroke="none" 
	d="
M330.364746,191.392944 
	C332.890594,187.435577 332.491943,183.426208 330.429382,179.310242 
	C334.732147,181.611816 335.208374,186.541046 331.252625,191.761139 
	C330.728424,191.726669 330.364746,191.392944 330.364746,191.392944 
z"/>
<path fill="#F9F9F9" opacity="1.000000" stroke="none" 
	d="
M398.053986,219.938370 
	C402.383331,224.509491 403.233398,228.769241 400.198944,233.801300 
	C399.407379,233.820175 399.226898,233.786606 399.046387,233.753036 
	C402.230499,229.215561 400.463440,225.162216 397.776367,220.737610 
	C397.734283,220.280502 398.053986,219.938370 398.053986,219.938370 
z"/>
<path fill="#FBFBFB" opacity="1.000000" stroke="none" 
	d="
M72.074318,157.919678 
	C76.350342,162.555618 76.030464,165.283279 70.006409,171.912292 
	C70.772896,167.250778 75.804283,163.551926 71.611641,158.605957 
	C71.776901,158.094070 71.925613,158.006882 72.074318,157.919678 
z"/>
<path fill="#FEFEFE" opacity="1.000000" stroke="none" 
	d="
M333.074524,218.915665 
	C336.018555,224.398178 335.609619,230.024979 333.193970,235.778610 
	C332.414124,235.809464 332.237549,235.773880 332.060944,235.738281 
	C334.591980,230.655624 334.515289,225.484970 332.616211,219.754105 
	C332.790802,219.142899 332.932648,219.029282 333.074524,218.915665 
z"/>
<path fill="#F6F6F6" opacity="1.000000" stroke="none" 
	d="
M71.815552,65.558029 
	C69.592430,68.797188 67.455139,72.178368 63.531700,71.042404 
	C65.406761,69.394585 67.821350,67.272621 70.779060,65.190201 
	C71.486641,65.339180 71.651100,65.448601 71.815552,65.558029 
z"/>
<path fill="#F3F3F3" opacity="1.000000" stroke="none" 
	d="
M323.139282,198.634964 
	C325.393280,196.378677 327.647308,194.122375 330.133026,191.629517 
	C330.364746,191.392944 330.728424,191.726669 330.902557,191.901581 
	C328.981171,194.392624 326.885620,196.708771 324.212952,198.921753 
	C323.470306,198.757385 323.304779,198.696167 323.139282,198.634964 
z"/>
<path fill="#F6F6F6" opacity="1.000000" stroke="none" 
	d="
M71.089905,65.045792 
	C71.819229,61.828331 72.780838,58.794830 73.842880,55.444504 
	C76.802391,59.047733 73.829712,62.013584 72.084564,65.330826 
	C71.651100,65.448601 71.486641,65.339180 71.089905,65.045792 
z"/>
<path fill="#F9F9F9" opacity="1.000000" stroke="none" 
	d="
M296.189087,90.026855 
	C294.306458,90.862091 292.832275,91.680794 291.358124,92.499504 
	C291.161011,91.982834 290.963898,91.466164 290.766754,90.949493 
	C294.183807,89.707832 297.600861,88.466164 301.017883,87.224495 
	C301.176758,87.653313 301.335602,88.082130 301.494446,88.510948 
	C299.862152,89.010742 298.229858,89.510536 296.189087,90.026855 
z"/>
<path fill="#F9F9F9" opacity="1.000000" stroke="none" 
	d="
M249.647171,134.010162 
	C246.260223,134.011047 243.331619,134.011047 240.403000,134.011047 
	C240.397537,133.802612 240.392090,133.594177 240.386627,133.385742 
	C244.864304,132.936401 249.341965,132.487076 253.819641,132.037735 
	C253.914551,132.196640 254.009476,132.355545 254.104385,132.514450 
	C252.771423,133.012711 251.438461,133.510986 249.647171,134.010162 
z"/>
<path fill="#FDFDFD" opacity="1.000000" stroke="none" 
	d="
M212.068848,132.063293 
	C207.635574,132.977142 203.202301,133.891006 198.769028,134.804871 
	C198.694992,134.390991 198.620972,133.977097 198.546936,133.563217 
	C202.668228,132.931808 206.789520,132.300400 211.351868,131.658783 
	C211.792938,131.648575 212.068848,132.063293 212.068848,132.063293 
z"/>
<path fill="#F2F2F2" opacity="1.000000" stroke="none" 
	d="
M323.882721,128.925812 
	C323.211334,132.991531 320.361725,133.030624 317.178040,132.850098 
	C319.143005,131.434677 320.918060,130.156097 322.941650,128.658600 
	C323.347473,128.543015 323.504761,128.646362 323.882721,128.925812 
z"/>
<path fill="#F8F8F8" opacity="1.000000" stroke="none" 
	d="
M367.600708,94.220032 
	C368.889374,96.374634 370.178070,98.529236 371.466736,100.683838 
	C371.109192,100.892036 370.751678,101.100235 370.394135,101.308441 
	C369.267761,99.465797 368.141388,97.623154 367.142212,95.224998 
	C367.379852,94.519661 367.490265,94.369843 367.600708,94.220032 
z"/>
<path fill="#F4F4F4" opacity="1.000000" stroke="none" 
	d="
M74.384216,122.597656 
	C73.115997,124.423042 71.701096,126.005623 70.286201,127.588203 
	C69.933266,127.276146 69.580338,126.964088 69.227402,126.652031 
	C70.574814,125.154839 71.922226,123.657646 73.581879,122.031860 
	C74.008591,122.053795 74.123062,122.204323 74.384216,122.597656 
z"/>
<path fill="#FDFDFD" opacity="1.000000" stroke="none" 
	d="
M218.120560,93.489853 
	C220.963547,92.225868 223.582642,91.338364 226.201721,90.450859 
	C226.319290,90.833412 226.436859,91.215965 226.554428,91.598518 
	C223.668503,92.354454 220.782593,93.110397 218.120560,93.489853 
z"/>
<path fill="#010101" opacity="1.000000" stroke="none" 
	d="
M192.919312,166.330261 
	C194.594589,166.149017 195.991241,166.149017 197.387878,166.149017 
	C197.292587,166.647919 197.197281,167.146820 197.101974,167.645721 
	C195.614868,167.267639 194.127777,166.889572 192.919312,166.330261 
z"/>
<path fill="#F3F3F3" opacity="1.000000" stroke="none" 
	d="
M311.939331,208.994812 
	C313.544922,207.554367 315.150543,206.113937 316.756134,204.673492 
	C317.057892,204.989899 317.359650,205.306320 317.661407,205.622726 
	C316.380707,206.754288 315.100006,207.885849 313.164490,209.022583 
	C312.319489,209.016769 312.129395,209.005783 311.939331,208.994812 
z"/>
<path fill="#F9F9F9" opacity="1.000000" stroke="none" 
	d="
M446.290741,195.737244 
	C443.361572,196.347275 440.761078,196.715576 438.160614,197.083878 
	C438.127594,196.618362 438.094543,196.152863 438.061523,195.687363 
	C440.914154,195.623413 443.766815,195.559464 446.290741,195.737244 
z"/>
<path fill="#F9F9F9" opacity="1.000000" stroke="none" 
	d="
M399.090973,235.084045 
	C397.117249,236.303955 395.143524,237.523865 393.169800,238.743774 
	C392.977020,238.415802 392.784271,238.087830 392.591492,237.759842 
	C394.417175,236.643967 396.242859,235.528091 398.460724,234.500214 
	C398.932281,234.753494 399.011627,234.918777 399.090973,235.084045 
z"/>
<path fill="#F8F8F8" opacity="1.000000" stroke="none" 
	d="
M367.086609,94.880493 
	C365.932892,93.654678 364.962036,92.217857 364.126099,90.230026 
	C364.374786,89.526810 364.488556,89.374619 364.602356,89.222412 
	C365.460480,90.715775 366.318573,92.209137 367.388672,93.961266 
	C367.490265,94.369843 367.379852,94.519661 367.086609,94.880493 
z"/>
<path fill="#F8F8F8" opacity="1.000000" stroke="none" 
	d="
M361.599426,84.219666 
	C362.458801,85.714600 363.318146,87.209534 364.389923,88.963440 
	C364.488556,89.374619 364.374786,89.526810 364.073761,89.893929 
	C362.928375,88.660110 361.970245,87.211372 361.140686,85.215874 
	C361.379333,84.519295 361.489380,84.369484 361.599426,84.219666 
z"/>
<path fill="#F9F9F9" opacity="1.000000" stroke="none" 
	d="
M288.664062,97.508698 
	C288.587555,96.115265 288.807526,94.452484 289.027496,92.789711 
	C289.509979,92.907234 289.992462,93.024757 290.474945,93.142273 
	C289.970154,94.507973 289.465332,95.873672 288.664062,97.508698 
z"/>
<path fill="#F8F8F8" opacity="1.000000" stroke="none" 
	d="
M361.086853,84.879982 
	C359.978668,83.878464 359.052856,82.666061 358.127075,81.453667 
	C358.360809,81.237633 358.594543,81.021606 358.828278,80.805573 
	C359.610443,81.770050 360.392578,82.734528 361.387085,83.959335 
	C361.489380,84.369484 361.379333,84.519295 361.086853,84.879982 
z"/>
<path fill="#F4F4F4" opacity="1.000000" stroke="none" 
	d="
M365.903076,160.897644 
	C363.873077,161.462067 361.670898,161.843033 359.468719,162.223999 
	C359.445953,161.882614 359.423187,161.541214 359.400452,161.199814 
	C361.172791,161.074646 362.945129,160.949478 365.045868,160.591736 
	C365.493134,160.477493 365.612030,160.595840 365.903076,160.897644 
z"/>
<path fill="#F2F2F2" opacity="1.000000" stroke="none" 
	d="
M77.085861,222.075958 
	C76.635880,223.329544 76.185883,224.583115 75.213135,225.806183 
	C74.690384,225.775696 74.252312,225.542587 74.252312,225.542587 
	C74.850494,224.343765 75.448677,223.144958 76.382607,221.838226 
	C76.840858,221.845535 76.963356,221.960739 77.085861,222.075958 
z"/>
<path fill="#FCFCFC" opacity="1.000000" stroke="none" 
	d="
M203.065796,237.060608 
	C202.070663,237.413086 201.075516,237.765549 200.080368,238.118011 
	C200.009445,237.904907 199.938538,237.691818 199.867615,237.478729 
	C200.587891,237.174759 201.308151,236.870804 202.405304,236.614319 
	C202.782196,236.661789 203.065796,237.060608 203.065796,237.060608 
z"/>
<path fill="#FEFEFE" opacity="1.000000" stroke="none" 
	d="
M176.627777,132.684570 
	C177.456207,132.082275 178.586472,131.760254 179.716721,131.438232 
	C179.783127,131.819656 179.849518,132.201080 179.915909,132.582504 
	C178.920456,132.709946 177.925018,132.837387 176.627777,132.684570 
z"/>
<path fill="#FBFBFB" opacity="1.000000" stroke="none" 
	d="
M70.521790,157.736282 
	C69.677902,157.001007 68.834015,156.265732 67.990128,155.530457 
	C68.110794,155.328796 68.231453,155.127151 68.352119,154.925507 
	C69.181885,155.383072 70.011658,155.840652 70.804672,156.810669 
	C70.767921,157.323135 70.521790,157.736282 70.521790,157.736282 
z"/>
<path fill="#F2F2F2" opacity="1.000000" stroke="none" 
	d="
M76.550858,221.541718 
	C76.595657,220.607956 76.807961,219.862793 77.128540,218.841370 
	C77.388535,218.635406 77.540268,218.705719 77.889648,218.930481 
	C77.969284,219.996216 77.851288,220.907501 77.409576,221.947357 
	C76.963356,221.960739 76.840858,221.845535 76.550858,221.541718 
z"/>
<path fill="#F6F6F6" opacity="1.000000" stroke="none" 
	d="
M398.605347,72.282944 
	C399.635834,72.135674 400.354706,72.250893 401.073547,72.366119 
	C401.015564,72.669357 400.957611,72.972588 400.899628,73.275826 
	C400.030975,73.032364 399.162323,72.788902 398.605347,72.282944 
z"/>
<path fill="#FCFCFC" opacity="1.000000" stroke="none" 
	d="
M258.068024,237.062714 
	C257.261780,237.430573 256.455536,237.798431 255.649277,238.166290 
	C255.540283,237.934067 255.431305,237.701843 255.322311,237.469620 
	C255.881393,237.176483 256.440491,236.883347 257.393982,236.622513 
	C257.788391,236.654816 258.068024,237.062714 258.068024,237.062714 
z"/>
<path fill="#FEFEFE" opacity="1.000000" stroke="none" 
	d="
M329.110321,238.090439 
	C329.773926,237.553574 330.406281,236.986664 331.442932,236.504623 
	C331.925140,236.751221 332.003082,236.912964 332.081024,237.074707 
	C331.292389,237.382828 330.503723,237.690933 329.365601,237.999847 
	C329.016113,238.000641 329.079041,238.060394 329.110321,238.090439 
z"/>
<path fill="#F8F8F8" opacity="1.000000" stroke="none" 
	d="
M398.891876,211.900116 
	C398.187256,212.445114 397.296509,212.806625 396.405731,213.168152 
	C396.302734,212.875381 396.199768,212.582596 396.096771,212.289825 
	C396.657776,212.120178 397.218811,211.950546 398.047363,211.575272 
	C398.445129,211.485306 398.575439,211.600967 398.891876,211.900116 
z"/>
<path fill="#FBFBFB" opacity="1.000000" stroke="none" 
	d="
M65.667877,174.190308 
	C66.665329,173.931076 67.309860,173.861008 67.954391,173.790939 
	C67.926163,174.144852 67.897926,174.498749 67.869698,174.852646 
	C67.018120,174.694931 66.166542,174.537216 65.667877,174.190308 
z"/>
<path fill="#F9F9F9" opacity="1.000000" stroke="none" 
	d="
M459.794067,176.406616 
	C459.132782,176.833588 458.218903,176.925247 457.304993,177.016922 
	C457.307678,176.755997 457.310364,176.495071 457.313049,176.234146 
	C458.055847,176.179886 458.798676,176.125610 459.794067,176.406616 
z"/>
<path fill="#FCFCFC" opacity="1.000000" stroke="none" 
	d="
M204.489044,179.361191 
	C204.044357,178.700439 203.796356,177.913712 203.548355,177.126984 
	C204.034241,177.512604 204.520142,177.898239 205.029724,178.615509 
	C205.053436,178.947159 204.685715,179.235214 204.489044,179.361191 
z"/>
<path fill="#FEFEFE" opacity="1.000000" stroke="none" 
	d="
M106.893356,131.878159 
	C106.222191,132.445343 105.395203,132.836823 104.568222,133.228287 
	C104.450188,132.975494 104.332161,132.722717 104.214127,132.469925 
	C104.760468,132.233856 105.306816,131.997787 106.134514,131.560944 
	C106.415871,131.360199 106.737549,131.702438 106.893356,131.878159 
z"/>
<path fill="#FFFFFF" opacity="1.000000" stroke="none" 
	d="
M312.069702,210.063766 
	C311.503174,210.513489 310.936615,210.963211 310.370087,211.412933 
	C310.571136,210.811264 310.772186,210.209595 311.383881,209.625885 
	C311.886261,209.783813 311.977997,209.923798 312.069702,210.063766 
z"/>
<path fill="#F8F8F8" opacity="1.000000" stroke="none" 
	d="
M202.409027,165.641266 
	C202.740646,165.265335 203.334381,165.205887 203.928101,165.146454 
	C203.509109,165.416901 203.090103,165.687332 202.409027,165.641266 
z"/>
<path fill="#F9F9F9" opacity="1.000000" stroke="none" 
	d="
M261.546814,177.443298 
	C260.922577,177.227066 260.475067,176.846161 259.352570,175.890717 
	C260.758514,176.137939 261.312408,176.235336 261.963104,176.632294 
	C262.059906,176.931870 261.723541,177.278625 261.546814,177.443298 
z"/>
<path fill="#F3F3F3" opacity="1.000000" stroke="none" 
	d="
M324.395355,81.377396 
	C323.851135,81.078796 323.552582,80.636215 323.254028,80.193626 
	C323.798309,80.240067 324.342590,80.286507 324.991821,80.612404 
	C324.944885,81.005707 324.792969,81.119553 324.395355,81.377396 
z"/>
<path fill="#F9F9F9" opacity="1.000000" stroke="none" 
	d="
M397.567139,220.444458 
	C396.949554,220.231689 396.499115,219.854965 395.345978,218.890518 
	C396.774811,219.144073 397.322296,219.241226 397.961914,219.638382 
	C398.053986,219.938370 397.734283,220.280502 397.567139,220.444458 
z"/>
<path fill="#F2F2F2" opacity="1.000000" stroke="none" 
	d="
M320.481293,114.921844 
	C320.665283,114.506203 321.160797,114.349113 321.667542,114.248657 
	C321.694672,114.243279 321.816315,114.714333 321.893982,114.963608 
	C321.527710,115.039825 321.161438,115.116051 320.481293,114.921844 
z"/>
<path fill="#FEFEFE" opacity="1.000000" stroke="none" 
	d="
M332.419800,219.404221 
	C331.873871,219.111099 331.557068,218.670258 331.240295,218.229401 
	C331.785675,218.270203 332.331055,218.311020 332.975464,218.633759 
	C332.932648,219.029282 332.790802,219.142899 332.419800,219.404221 
z"/>
<path fill="#F9F9F9" opacity="1.000000" stroke="none" 
	d="
M247.587006,216.611694 
	C248.129120,216.903854 248.433823,217.343613 248.738510,217.783356 
	C248.196335,217.742203 247.654144,217.701050 247.010132,217.381226 
	C247.055405,216.988129 247.202499,216.873718 247.587006,216.611694 
z"/>
<path fill="#F3F3F3" opacity="1.000000" stroke="none" 
	d="
M323.100586,200.093964 
	C322.571533,200.588745 322.042480,201.083542 321.513458,201.578323 
	C321.335419,201.438965 321.157410,201.299606 320.979401,201.160248 
	C321.332886,200.591125 321.686340,200.022018 322.446381,199.527527 
	C322.935516,199.766098 323.018036,199.930038 323.100586,200.093964 
z"/>
<path fill="#FDFDFD" opacity="1.000000" stroke="none" 
	d="
M212.860962,130.920395 
	C212.897797,131.354538 212.735611,131.646088 212.321136,132.000458 
	C212.068848,132.063293 211.792938,131.648575 211.689545,131.421997 
	C211.659424,130.993011 211.782120,130.827164 212.091675,130.623230 
	C212.229126,130.548630 212.661911,130.777802 212.860962,130.920395 
z"/>
<path fill="#F2F2F2" opacity="1.000000" stroke="none" 
	d="
M74.885010,225.929596 
	C74.815918,226.325317 74.552200,226.567169 74.288483,226.809021 
	C74.195152,226.553741 74.101822,226.298462 74.130402,225.792877 
	C74.252312,225.542587 74.690384,225.775696 74.885010,225.929596 
z"/>
<path fill="#F9F9F9" opacity="1.000000" stroke="none" 
	d="
M399.836853,233.971466 
	C399.918060,234.373703 399.750336,234.658218 399.336792,235.013397 
	C399.011627,234.918777 398.932281,234.753494 398.802063,234.317841 
	C398.751221,234.047485 398.949310,233.851654 398.997864,233.802338 
	C399.226898,233.786606 399.407379,233.820175 399.836853,233.971466 
z"/>
<path fill="#F3F3F3" opacity="1.000000" stroke="none" 
	d="
M322.788147,199.334595 
	C322.723328,199.067017 322.970795,198.747879 323.055054,198.691422 
	C323.304779,198.696167 323.470306,198.757385 323.862549,198.955246 
	C323.923523,199.377731 323.757812,199.663574 323.346313,200.021698 
	C323.018036,199.930038 322.935516,199.766098 322.788147,199.334595 
z"/>
<path fill="#FCFCFC" opacity="1.000000" stroke="none" 
	d="
M203.862747,235.921280 
	C203.898636,236.356445 203.735580,236.648178 203.319153,237.000244 
	C203.065796,237.060608 202.782196,236.661789 202.669556,236.444580 
	C202.639603,236.018723 202.769836,235.845871 203.089661,235.627228 
	C203.231720,235.545639 203.663788,235.777847 203.862747,235.921280 
z"/>
<path fill="#FCFCFC" opacity="1.000000" stroke="none" 
	d="
M258.849518,235.948761 
	C258.907043,236.366058 258.738983,236.653717 258.319458,237.002045 
	C258.068024,237.062714 257.788391,236.654816 257.681274,236.431946 
	C257.624084,236.024368 257.727966,235.877869 258.008850,235.709869 
	C258.295929,235.706451 258.459930,235.762787 258.849518,235.948761 
z"/>
<path fill="#FEFEFE" opacity="1.000000" stroke="none" 
	d="
M331.792480,236.325806 
	C331.737732,236.062134 331.947449,235.839844 332.004211,235.789062 
	C332.237549,235.773880 332.414124,235.809464 332.834045,235.962524 
	C332.909973,236.365479 332.742523,236.650970 332.328064,237.005585 
	C332.003082,236.912964 331.925140,236.751221 331.792480,236.325806 
z"/>
<path fill="#F4F4F4" opacity="1.000000" stroke="none" 
	d="
M74.453583,90.328125 
	C74.185577,90.041451 74.140549,89.642708 74.095520,89.243965 
	C74.364159,89.283218 74.632805,89.322472 74.988777,89.639343 
	C75.076111,89.916977 74.676552,90.216064 74.453583,90.328125 
z"/>
<path fill="#FFFFFF" opacity="1.000000" stroke="none" 
	d="
M311.837982,209.007233 
	C312.129395,209.005783 312.319489,209.016769 312.795227,209.027008 
	C312.915344,209.326569 312.749817,209.626877 312.326965,209.995468 
	C311.977997,209.923798 311.886261,209.783813 311.700989,209.410858 
	C311.607483,209.177887 311.736633,209.019669 311.837982,209.007233 
z"/>
<path fill="#FBFBFB" opacity="1.000000" stroke="none" 
	d="
M71.385071,158.269333 
	C70.944550,158.290146 70.783936,158.172623 70.590942,157.870544 
	C70.521790,157.736282 70.767921,157.323135 70.914391,157.132431 
	C71.353142,157.100800 71.645424,157.259872 72.006012,157.669312 
	C71.925613,158.006882 71.776901,158.094070 71.385071,158.269333 
z"/>
</svg>