<svg version="1.1" id="Layer_1" xmlns="http://www.w3.org/2000/svg" xmlns:xlink="http://www.w3.org/1999/xlink" x="0px" y="0px"
	 width="100%" viewBox="0 0 1920 1080" enable-background="new 0 0 1920 1080" xml:space="preserve">
<path fill="#FFFFFF" opacity="1.000000" stroke="none" 
	d="
M1398.000000,1081.000000 
	C932.000061,1081.000000 466.500153,1081.000000 1.000187,1081.000000 
	C1.000125,721.000122 1.000125,361.000305 1.000062,1.000332 
	C640.999756,1.000221 1280.999512,1.000221 1920.999512,1.000111 
	C1920.999634,360.999664 1920.999634,720.999329 1920.999756,1080.999512 
	C1746.833374,1081.000000 1572.666626,1081.000000 1398.000000,1081.000000 
M858.900391,750.943665 
	C858.904053,772.106934 858.909790,793.270264 858.910706,814.433533 
	C858.911377,829.885376 859.812378,845.116028 864.691040,860.064880 
	C870.352905,877.413452 880.863281,890.322754 896.775330,898.890686 
	C911.763855,906.961426 928.303650,909.499390 944.906494,910.795837 
	C954.211548,911.522461 963.736816,910.677673 973.056885,909.613220 
	C982.419861,908.543945 989.796021,903.624939 992.728577,894.229309 
	C996.996094,880.556824 997.384644,866.578674 993.917236,852.651367 
	C991.778381,844.060242 985.945557,838.645386 977.343323,837.166809 
	C969.891357,835.885864 962.257935,835.459106 954.684204,835.136536 
	C944.207764,834.690308 939.402588,828.371948 939.035767,819.676392 
	C938.628662,810.026733 938.572327,800.359253 938.516418,790.698608 
	C938.436646,776.907715 938.496094,763.116028 938.496094,748.748291 
	C941.293335,749.215637 943.641663,749.927246 945.996155,749.947998 
	C958.466858,750.057678 970.975769,750.577148 983.398682,749.796082 
	C992.537781,749.221436 1000.385803,745.168701 1004.416992,735.971130 
	C1008.092163,727.585754 1008.274902,718.720581 1008.086060,709.841797 
	C1007.963074,704.060303 1007.803345,698.202515 1006.796387,692.532288 
	C1004.404968,679.065674 994.286316,671.082214 980.136230,671.013306 
	C966.389954,670.946411 952.643188,670.998779 938.501038,670.998779 
	C938.501038,670.151489 938.513489,668.520508 938.499023,666.889709 
	C938.348267,649.895691 938.683411,632.878784 937.892700,615.914429 
	C937.191528,600.870911 932.954407,593.129333 915.671875,589.061340 
	C903.202332,586.126160 890.612732,586.785400 878.205505,589.418762 
	C874.445923,590.216797 870.625305,592.164795 867.567993,594.534729 
	C861.174866,599.490479 859.213806,606.784119 859.087585,614.546082 
	C858.908813,625.541626 858.945496,636.540833 858.915222,647.538574 
	C858.892883,655.673218 858.910889,663.807983 858.910889,672.064087 
	C851.910950,671.694519 845.307068,670.816711 838.762146,671.138489 
	C831.143433,671.513000 824.783325,674.407959 821.065430,682.059753 
	C816.876038,690.681885 816.989807,699.996521 816.276917,709.015991 
	C815.655457,716.878967 816.822815,725.045288 818.305725,732.867920 
	C819.849121,741.009216 828.595398,751.108521 838.755981,750.067871 
	C845.132141,749.414856 851.574768,749.411987 858.131042,749.509644 
	C858.265747,749.775635 858.477783,749.944763 858.900391,750.943665 
M693.046143,173.531403 
	C690.542419,164.496674 685.101746,158.812790 675.570068,156.888107 
	C663.548035,154.460526 651.574768,154.538116 639.488647,155.970093 
	C629.029480,157.209290 620.463989,160.860214 617.781799,172.255096 
	C616.856812,176.184448 615.919800,180.231750 615.889893,184.231934 
	C615.640564,217.551239 615.605103,250.872147 615.490356,284.192505 
	C615.484619,285.851410 615.342590,287.509888 615.247620,289.515442 
	C610.831360,285.732971 607.336121,282.130463 603.271057,279.365814 
	C587.756409,268.814148 570.272217,266.574951 552.115540,268.412994 
	C540.872070,269.551239 530.153748,272.865845 520.177979,278.330872 
	C505.369507,286.443420 493.215118,297.490295 482.208496,310.318481 
	C466.179962,328.999664 456.785614,350.483673 454.342773,374.559448 
	C453.084991,386.955902 453.682220,399.691498 456.117859,412.290924 
	C460.498840,434.953186 471.267151,454.093536 486.555664,470.831757 
	C492.596436,477.445343 499.566406,483.296509 506.576752,488.916779 
	C515.666199,496.203827 526.244019,501.173523 537.297424,504.431183 
	C549.712280,508.090057 562.748047,507.771790 575.521057,506.595398 
	C581.747314,506.022003 588.178589,504.126099 593.796875,501.364014 
	C601.468689,497.592316 608.453491,492.423401 616.048950,487.654999 
	C616.138367,487.788757 616.945496,488.623901 617.325134,489.621704 
	C621.704773,501.133087 631.055237,507.875977 643.105042,507.750763 
	C651.346252,507.665131 659.649597,507.731110 667.808105,506.752991 
	C683.099243,504.919769 691.571960,499.971375 694.614990,484.126434 
	C695.761292,478.157928 695.621094,471.892365 695.625000,465.761963 
	C695.682434,376.457703 695.719299,287.153351 695.570557,197.849304 
	C695.557434,189.971603 694.214111,182.096100 693.046143,173.531403 
M615.879578,848.366028 
	C626.794006,821.775208 637.778442,795.212830 648.598572,768.583740 
	C655.976318,750.426453 663.302307,732.243958 670.304626,713.940125 
	C674.149475,703.889893 673.297546,694.199646 665.469238,686.047974 
	C657.388000,677.633057 647.293457,672.471191 636.313477,669.029358 
	C617.843140,663.239624 603.543518,670.171753 596.221130,687.140747 
	C588.909973,704.083496 582.736267,721.520142 576.178711,738.783875 
	C572.180359,749.310181 568.398743,759.918884 564.237061,771.260986 
	C563.302673,769.647095 562.709290,768.894836 562.395447,768.039978 
	C555.536865,749.356201 548.835571,730.613586 541.828552,711.985901 
	C537.618713,700.794312 534.579346,689.007690 525.022339,680.518005 
	C503.630829,661.515686 475.183807,667.500488 461.637970,692.714905 
	C458.486633,698.580872 456.760437,705.219849 454.453644,711.530579 
	C449.947418,723.858276 445.538849,736.221741 441.002319,748.538208 
	C438.256226,755.993530 435.345734,763.388306 432.198700,771.622559 
	C430.884491,768.273560 429.909943,765.858521 428.985657,763.424438 
	C419.053741,737.268433 408.981842,711.164246 399.261780,684.929749 
	C393.849915,670.323120 381.237793,665.472900 368.534454,667.359863 
	C355.804504,669.250610 343.588928,673.437439 333.324249,681.453491 
	C326.228943,686.994446 320.850983,695.162598 323.375305,703.993896 
	C327.780670,719.405823 334.146881,734.278198 340.049957,749.235168 
	C345.791199,763.782104 352.024231,778.134277 357.964203,792.603699 
	C363.652618,806.460388 369.222198,820.365967 374.880890,834.234924 
	C379.916931,846.577759 384.838074,858.971313 390.114868,871.210999 
	C395.275879,883.182007 398.879120,895.806091 410.117493,904.586914 
	C419.608978,912.002991 429.916016,913.481445 440.564453,911.289185 
	C455.692932,908.174561 464.759827,897.278259 470.088989,883.344299 
	C477.313171,864.455566 484.112885,845.404846 491.175049,826.453552 
	C493.178284,821.077881 495.461517,815.806519 498.098053,809.298401 
	C501.366699,817.897522 504.154816,825.101440 506.846527,832.341309 
	C512.276245,846.945435 516.981262,861.866760 523.276489,876.085510 
	C527.872620,886.466553 532.476257,896.777771 542.023804,904.749634 
	C555.839600,916.284912 582.072083,914.189148 593.731262,897.206665 
	C603.842590,882.478699 608.185913,865.067078 615.879578,848.366028 
M230.618698,177.966827 
	C215.409485,171.764496 199.500610,168.867462 183.177216,167.950470 
	C168.701599,167.137253 154.379852,168.073608 140.127701,170.966965 
	C114.894524,176.089584 94.617264,188.923843 79.495857,209.639297 
	C69.405296,223.462784 62.928040,238.756851 61.010384,256.073669 
	C59.667095,268.203888 59.057056,280.133026 62.053917,292.019592 
	C65.309082,304.930603 70.034294,317.257111 78.191475,327.941376 
	C82.062149,333.011169 85.652802,338.893097 90.772659,342.299225 
	C106.499199,352.761719 123.650352,360.574036 141.809509,366.020996 
	C148.128479,367.916412 154.392975,370.001190 160.742584,371.785034 
	C173.622177,375.403442 187.206619,376.387756 199.353241,382.772583 
	C218.125320,392.640015 220.211853,404.362274 212.551193,420.926392 
	C210.009705,426.421692 204.555847,429.804504 198.408066,432.664276 
	C192.184296,435.559387 186.153610,437.443939 179.570358,437.952057 
	C162.123260,439.298737 149.268295,429.838165 136.932648,419.352325 
	C136.253906,418.775330 136.047729,417.656464 135.580734,416.812378 
	C135.134674,416.006195 134.809570,415.000824 134.127823,414.481110 
	C131.714386,412.641296 128.592407,411.429688 126.788452,409.149628 
	C121.929596,403.008514 115.393723,399.549225 108.678543,396.075104 
	C99.521126,391.337494 90.428619,392.934448 82.365158,397.563019 
	C71.462044,403.821625 63.247536,413.315887 57.385845,424.477661 
	C55.040054,428.944519 53.080021,433.530823 54.588043,439.332611 
	C58.238560,453.377228 67.228027,463.942566 76.693260,473.904877 
	C88.800163,486.647552 103.382301,496.518677 119.938789,502.558960 
	C169.051849,520.476929 215.784546,516.173523 259.146118,485.826141 
	C275.073242,474.679291 285.432617,459.014069 291.838623,440.987152 
	C298.383759,422.568665 299.700836,403.450470 297.060547,384.003418 
	C294.472351,364.940216 287.366882,348.208954 273.828186,334.260040 
	C269.133636,329.423218 264.479889,325.096985 257.842560,322.901917 
	C251.615158,320.842407 245.907822,317.127563 239.631989,315.321259 
	C233.646851,313.598633 228.805481,308.310303 221.896896,309.595764 
	C221.784607,309.616699 221.644485,309.376770 221.494202,309.320953 
	C216.350983,307.411804 211.207642,305.502930 206.055511,303.618073 
	C205.501114,303.415253 204.897842,303.328522 204.309464,303.239288 
	C202.284836,302.932129 200.238571,302.734467 198.238235,302.315338 
	C197.342499,302.127655 196.369095,300.972504 195.714615,301.174713 
	C187.476257,303.719727 180.178925,298.956055 172.454620,297.901825 
	C165.955124,297.014740 159.767548,293.191040 153.659424,290.220062 
	C139.951111,283.552368 136.809860,263.227753 147.682373,252.638275 
	C153.670761,246.805801 160.801697,244.791916 169.153152,243.587112 
	C183.072601,241.579056 194.997406,244.031921 205.107529,253.663330 
	C212.109711,260.333954 220.229813,264.548645 229.447037,267.049316 
	C237.252701,269.167023 244.501007,268.202362 251.022949,263.389130 
	C263.176758,254.419571 271.357941,242.464966 277.091461,228.611832 
	C279.377686,223.087936 280.229065,217.563828 276.888367,212.535721 
	C273.434174,207.336746 269.683075,202.043594 265.013123,198.003983 
	C255.069611,189.402542 244.196426,182.011627 230.618698,177.966827 
M173.652679,840.095581 
	C168.739304,838.953979 163.572266,838.433228 158.962173,836.549438 
	C147.180710,831.735168 138.249863,822.994690 129.403671,814.105286 
	C122.855049,807.524719 116.173813,800.551331 106.967079,797.923706 
	C98.817894,795.597839 90.776482,793.448853 82.363731,799.797302 
	C74.370667,805.829102 67.560646,812.710510 61.384876,820.318176 
	C53.201965,830.398254 51.158508,841.668823 58.881424,852.727722 
	C65.505669,862.213257 73.075760,871.092468 80.758553,879.769714 
	C88.880508,888.942810 99.454613,895.115479 110.140862,900.744080 
	C126.225838,909.216309 143.626785,913.773926 161.743713,914.552185 
	C173.794617,915.069885 186.065857,915.284485 197.954971,913.615417 
	C215.952454,911.088928 232.677292,904.289490 248.554947,895.153931 
	C270.324158,882.628601 285.015289,864.526123 292.691132,840.909363 
	C299.341003,820.449219 300.076294,799.332458 295.835815,778.320801 
	C291.720551,757.929504 281.622498,740.780701 264.086182,729.017700 
	C257.702301,724.735474 250.419800,721.339294 243.073807,719.075073 
	C235.998245,716.894226 229.959778,712.392883 222.102524,711.700623 
	C213.553802,710.947388 205.243942,707.763123 196.749359,706.034851 
	C188.572739,704.371338 180.621613,701.855347 172.388962,700.284851 
	C165.465988,698.964111 158.728577,695.359070 152.567917,691.666077 
	C143.667587,686.330872 139.679489,677.716675 141.216721,667.443359 
	C142.957565,655.809387 151.472565,649.888916 161.894562,647.099915 
	C167.320190,645.647888 173.335083,646.548828 179.037811,645.949402 
	C190.386826,644.756531 198.984604,650.043457 206.757446,657.300598 
	C213.155685,663.274353 220.314896,667.714539 228.982758,669.504089 
	C237.226440,671.206055 245.792786,670.735474 252.126114,665.614868 
	C262.776855,657.003479 270.530609,645.701050 276.324005,633.140564 
	C280.128784,624.891602 279.764771,617.413086 273.953766,610.140930 
	C265.977539,600.159119 256.280640,591.998596 245.106827,586.312622 
	C214.868515,570.925354 182.576080,566.875061 149.164200,571.635071 
	C122.382828,575.450500 99.382599,586.682922 82.426018,608.284912 
	C74.091354,618.902893 66.897118,630.321167 63.972275,643.911377 
	C63.336479,646.865479 61.449348,649.550293 60.180817,652.268555 
	C60.429974,654.895325 60.921562,657.819397 60.918041,660.742920 
	C60.915131,663.157593 59.904350,665.601868 60.074726,667.980408 
	C60.656528,676.102661 61.208435,684.255310 62.424770,692.297546 
	C64.438393,705.611389 69.460052,717.780884 77.013664,729.022827 
	C83.609230,738.839050 92.269234,746.337769 102.516884,751.643250 
	C119.921417,760.654114 138.034348,768.131897 156.966446,773.434387 
	C163.715652,775.324768 170.394943,777.929138 177.280487,778.756226 
	C186.882080,779.909485 195.297211,783.899292 203.649643,787.999817 
	C212.001709,792.100098 217.925537,798.361633 215.966599,808.841858 
	C215.600662,810.799622 214.046173,812.743286 214.242859,814.563477 
	C215.265244,824.025208 209.650208,829.506714 202.657028,833.767029 
	C194.124695,838.964966 184.489990,840.365479 173.652679,840.095581 
M1043.969727,705.179260 
	C1043.645874,706.762939 1042.985596,708.363342 1043.063599,709.927002 
	C1043.267212,714.014954 1043.994385,718.079041 1044.153809,722.166626 
	C1044.636719,734.554382 1050.922363,743.806030 1062.474976,747.258484 
	C1067.765015,748.839355 1073.515015,749.394897 1079.070923,749.481323 
	C1100.063232,749.808167 1121.061401,749.752136 1142.057373,749.837830 
	C1143.633057,749.844299 1145.208618,749.838745 1147.590210,749.838745 
	C1144.678955,752.898987 1142.608643,755.443176 1140.171875,757.566895 
	C1133.054932,763.770020 1125.709473,769.711365 1118.609985,775.934021 
	C1112.107300,781.633545 1105.890503,787.658752 1099.401978,793.374878 
	C1088.505981,802.973450 1077.369385,812.301819 1066.575928,822.012695 
	C1059.588989,828.298706 1053.149414,835.189026 1046.256348,841.584106 
	C1035.514893,851.549622 1031.748291,863.550293 1034.207520,877.971497 
	C1037.270142,895.931152 1054.102783,910.833069 1072.121338,910.781677 
	C1128.613892,910.620789 1185.107300,910.820129 1241.600464,910.792725 
	C1246.523438,910.790283 1251.633667,910.870911 1256.329224,909.651245 
	C1265.571777,907.250732 1273.656616,903.483765 1276.287109,892.472961 
	C1279.229492,880.157288 1279.779907,867.869324 1277.736572,855.597046 
	C1275.212524,840.436523 1269.441895,835.023682 1257.980225,832.296387 
	C1251.127075,830.665771 1243.855835,830.323364 1236.763916,830.251587 
	C1213.268311,830.013733 1189.769043,830.165771 1166.271118,830.150269 
	C1164.886230,830.149353 1163.501343,829.990173 1161.227783,829.849854 
	C1172.521240,819.454163 1183.116333,809.693176 1193.721069,799.942566 
	C1201.182373,793.082153 1208.706421,786.289185 1216.114868,779.372192 
	C1231.991821,764.548279 1248.339600,750.178345 1263.493530,734.645874 
	C1276.333618,721.485107 1275.749023,697.663147 1263.532349,683.989990 
	C1254.396606,673.765137 1243.072876,669.425842 1229.576050,669.452698 
	C1182.080566,669.547119 1134.584717,669.471252 1087.088989,669.513489 
	C1081.426270,669.518494 1075.744019,669.614929 1070.105347,670.084106 
	C1058.738403,671.029907 1049.322754,674.975464 1046.653809,687.556519 
	C1045.486938,693.056763 1044.887329,698.677307 1043.969727,705.179260 
M1307.998657,797.292603 
	C1308.453125,800.202271 1308.855103,803.121338 1309.372192,806.019897 
	C1310.596069,812.879272 1311.508301,819.821350 1313.208618,826.562927 
	C1316.580688,839.933350 1322.106323,852.394348 1329.671265,864.004211 
	C1337.300659,875.713318 1346.409668,885.965820 1357.729370,894.150208 
	C1368.300415,901.793274 1380.210938,907.132446 1392.607422,910.509583 
	C1404.628052,913.784241 1417.203613,916.432861 1429.583374,916.652405 
	C1448.770142,916.992432 1468.064087,916.568359 1487.157715,913.128479 
	C1499.621460,910.883057 1511.667603,907.763977 1522.173584,900.622498 
	C1531.820923,894.064636 1537.613403,884.669556 1535.563477,872.790710 
	C1534.254761,865.207092 1531.294678,857.596619 1527.600830,850.799194 
	C1519.050537,835.064270 1507.461548,830.666809 1491.164673,837.224365 
	C1479.059937,842.095154 1466.841919,845.128784 1453.855591,846.497986 
	C1437.257690,848.248047 1421.901733,845.603455 1407.765747,836.938782 
	C1400.485596,832.476501 1394.554443,826.646545 1394.877808,816.509949 
	C1396.559082,816.509949 1397.848267,816.509888 1399.137329,816.509888 
	C1432.624146,816.509888 1466.111328,816.418335 1499.597534,816.566284 
	C1509.503906,816.610046 1518.491089,814.117920 1526.723145,808.721375 
	C1542.415283,798.434326 1547.253906,782.696838 1547.826782,765.227905 
	C1548.588257,742.002502 1541.784180,721.097290 1527.233154,702.792969 
	C1514.098999,686.270813 1497.491821,675.275574 1477.060425,669.699463 
	C1458.064819,664.515259 1438.913452,663.986938 1419.495117,665.954651 
	C1404.596436,667.464417 1390.330566,671.233765 1376.865356,677.682312 
	C1360.571167,685.485840 1346.667480,696.257202 1335.117798,710.417542 
	C1327.138306,720.200684 1320.789307,730.804810 1316.476807,742.384155 
	C1310.037842,759.672913 1307.787231,777.870483 1307.998657,797.292603 
M1241.054443,485.401855 
	C1241.900635,481.248352 1243.592651,477.060455 1243.425415,472.948120 
	C1243.016479,462.886230 1239.096558,453.764709 1233.494751,445.516724 
	C1225.578613,433.861298 1215.710815,428.913391 1201.704102,434.042999 
	C1189.895020,438.367859 1178.085327,442.567474 1165.371094,443.679596 
	C1148.145386,445.186371 1131.370972,444.885681 1116.108154,435.145081 
	C1108.440918,430.251831 1102.596802,424.343018 1102.395264,414.170380 
	C1104.591797,414.170380 1106.409302,414.170380 1108.226685,414.170349 
	C1141.556396,414.170166 1174.887207,414.003754 1208.215454,414.232117 
	C1228.301758,414.369720 1247.310181,401.021851 1252.520752,381.622375 
	C1255.862305,369.181305 1256.268188,356.587250 1253.993164,343.952942 
	C1248.025879,310.814026 1229.757080,287.017883 1199.255737,272.752625 
	C1177.036621,262.360962 1153.366089,260.882355 1129.546143,263.298645 
	C1095.768799,266.725006 1066.622314,279.801941 1044.125977,306.397156 
	C1034.822632,317.395630 1028.006470,329.516846 1023.253601,342.825226 
	C1018.667786,355.665588 1016.041809,369.012207 1016.376831,382.783508 
	C1016.596436,391.812286 1015.665771,401.052643 1017.288635,409.820953 
	C1019.770691,423.230927 1023.587646,436.385040 1030.035767,448.701172 
	C1038.127686,464.157135 1047.751221,478.457001 1061.738525,488.930267 
	C1082.057251,504.144409 1105.285034,512.498169 1130.683960,513.677734 
	C1158.878784,514.987061 1187.068726,514.962097 1214.333130,505.938202 
	C1225.306885,502.306152 1235.210693,497.027679 1241.054443,485.401855 
M1473.361816,461.961700 
	C1481.624634,443.445831 1489.845459,424.911072 1498.160034,406.418427 
	C1512.172607,375.252167 1526.294189,344.134705 1540.267090,312.950684 
	C1545.533203,301.198059 1543.986816,288.309631 1532.208984,279.493469 
	C1521.143799,271.210693 1508.928223,266.194183 1495.487549,264.179962 
	C1482.786987,262.276642 1475.210083,266.613373 1469.337036,278.167755 
	C1467.666870,281.453430 1466.136230,284.811066 1464.582764,288.154785 
	C1455.993530,306.641937 1447.290771,325.077820 1438.877197,343.644714 
	C1432.512451,357.690399 1426.522339,371.905884 1419.968872,386.956604 
	C1418.546387,384.995758 1417.435547,383.690796 1416.570801,382.239258 
	C1395.586914,347.014496 1374.667725,311.751068 1353.646118,276.548798 
	C1346.150879,263.997559 1334.428223,259.537994 1320.583740,264.065674 
	C1306.794189,268.575409 1294.928223,276.409790 1285.545166,287.361542 
	C1281.468018,292.120422 1278.975342,297.947968 1281.068359,305.243835 
	C1284.311035,316.546997 1291.007202,325.943054 1296.669922,335.821991 
	C1310.863770,360.584564 1325.911255,384.856934 1340.540894,409.371033 
	C1346.000244,418.519135 1351.176025,427.836273 1356.612793,436.998230 
	C1364.020142,449.480927 1371.594360,461.864777 1378.963989,474.369476 
	C1379.641113,475.518280 1379.929932,477.484314 1379.423950,478.646210 
	C1376.228149,485.985596 1372.748047,493.200867 1369.379028,500.465057 
	C1363.642334,512.834473 1357.647583,525.093323 1352.271118,537.617493 
	C1347.594238,548.511597 1343.762939,559.765381 1339.301392,570.756104 
	C1334.367310,582.911316 1337.646484,593.127686 1347.781128,600.947876 
	C1356.363770,607.570496 1366.277222,611.288269 1376.438354,614.248657 
	C1392.915527,619.048828 1403.893677,615.795044 1411.438599,599.931519 
	C1417.955322,586.229614 1423.941895,572.275269 1430.144531,558.424316 
	C1444.440186,526.502197 1458.724609,494.575073 1473.361816,461.961700 
M944.846252,297.653259 
	C942.269836,295.314728 939.716248,292.950470 937.113403,290.641724 
	C918.721252,274.327759 896.753113,267.340607 872.655457,267.361633 
	C854.053589,267.377838 838.175903,274.929565 825.350281,288.507721 
	C823.221985,290.760956 821.534851,293.431000 819.643860,295.908417 
	C819.120483,295.472382 818.597168,295.036346 818.073792,294.600311 
	C818.015808,293.835114 817.982361,293.067108 817.896057,292.305115 
	C816.362793,278.770508 811.444458,272.095673 799.273743,269.466675 
	C784.396057,266.252899 769.415955,266.315582 754.576721,270.521423 
	C746.210999,272.892487 742.050903,279.088715 740.498657,286.749207 
	C739.150330,293.403168 739.068176,300.389282 739.066772,307.228729 
	C739.054504,365.698517 739.022949,424.169556 739.462952,482.636688 
	C739.526367,491.065948 742.970764,499.363617 751.198792,503.385712 
	C756.373535,505.915283 762.450256,507.468109 768.204346,507.742737 
	C777.068237,508.165741 786.055298,507.576721 794.892212,506.563293 
	C804.018372,505.516693 812.157593,501.772705 815.454285,492.369843 
	C817.380371,486.876251 818.775085,480.889343 818.847595,475.104797 
	C819.206848,446.451904 819.085327,417.792450 819.052307,389.135406 
	C819.034851,374.001740 823.943298,361.453796 837.235413,353.040405 
	C844.306152,348.564850 852.084229,348.137878 860.206604,347.823303 
	C874.964844,347.251740 890.843079,356.138397 895.204590,369.294189 
	C897.476379,376.146606 898.785522,383.622192 898.882629,390.838440 
	C899.281250,420.469421 898.800110,450.112823 899.266602,479.741821 
	C899.353882,485.280884 901.294067,491.382355 904.160645,496.153992 
	C909.043518,504.281647 918.125061,506.968567 926.804382,507.714783 
	C936.261841,508.527924 946.080811,508.200134 955.421143,506.551239 
	C967.562988,504.407806 974.800232,501.729584 977.989258,486.379272 
	C979.122559,480.924194 979.581970,475.243988 979.621460,469.661438 
	C979.797119,444.837494 979.883057,420.009888 979.632446,395.187378 
	C979.528931,384.930969 979.277649,374.565338 977.737610,364.455933 
	C973.873718,339.092407 963.106018,316.857788 944.846252,297.653259 
M1616.609741,669.998962 
	C1611.870605,670.710999 1607.078003,671.174561 1602.402832,672.183289 
	C1590.090332,674.839844 1585.973999,683.118286 1585.411987,693.474182 
	C1584.330200,713.413513 1584.638550,733.434814 1584.596436,753.422607 
	C1584.507690,795.573059 1584.470825,837.724182 1584.642090,879.874146 
	C1584.675903,888.200928 1585.114746,896.482666 1592.381226,902.828003 
	C1599.030151,908.633972 1607.086670,909.971497 1615.025635,910.737976 
	C1622.830078,911.491333 1630.850952,910.514893 1638.734497,909.819214 
	C1650.598145,908.772278 1660.974976,903.220947 1663.101074,890.372864 
	C1663.905396,885.512695 1664.893433,880.600403 1664.918945,875.707275 
	C1665.091064,842.720703 1665.318237,809.729431 1664.924194,776.746887 
	C1664.707031,758.564758 1680.799927,746.256348 1696.400269,745.198120 
	C1705.811523,744.559692 1714.838379,748.006409 1723.965088,750.531799 
	C1738.375854,754.519226 1747.869629,752.585327 1755.940308,740.614319 
	C1764.930298,727.279968 1769.215942,712.457520 1767.929565,696.313049 
	C1767.270996,688.047058 1764.072144,680.723145 1756.281982,676.924377 
	C1750.024780,673.873108 1743.401489,671.042786 1736.626099,669.690002 
	C1720.568970,666.484009 1704.645996,666.374390 1689.616089,674.751648 
	C1680.279297,679.955627 1670.750610,684.746460 1664.341797,694.327820 
	C1661.330811,679.197205 1654.860229,672.773132 1640.416626,671.091309 
	C1632.865234,670.212036 1625.197510,670.330872 1616.609741,669.998962 
M415.072968,441.500000 
	C415.072968,423.673096 415.193024,405.845215 415.046814,388.019501 
	C414.782043,355.742859 414.446960,323.466187 413.944458,291.192566 
	C413.803406,282.132019 407.180054,273.693054 398.143372,271.091064 
	C381.206024,266.214233 364.104065,266.107361 347.595184,272.427521 
	C343.108551,274.145142 338.897858,278.632996 336.434479,282.924957 
	C334.530060,286.243011 335.316162,291.239838 335.307495,295.491119 
	C335.185547,355.300964 335.020538,415.111389 335.281891,474.919891 
	C335.302094,479.551331 333.459045,483.972015 335.813507,489.246429 
	C340.341492,499.389923 349.084717,507.737823 359.935486,507.880310 
	C370.831879,508.023407 381.774750,507.691681 392.631165,506.780487 
	C400.413940,506.127258 407.517609,502.608093 410.565979,495.001709 
	C412.958893,489.030884 414.413574,482.403198 414.811615,475.976074 
	C415.500366,464.854645 415.047150,453.662476 415.072968,441.500000 
M713.612854,904.073547 
	C720.273315,908.920227 728.226868,910.192505 735.970337,910.761353 
	C743.966003,911.348694 752.161133,910.702087 760.143799,909.647278 
	C773.021912,907.945557 780.260864,903.076477 783.025940,889.360779 
	C784.064087,884.210632 784.764526,878.893494 784.776367,873.650574 
	C784.901917,818.186157 784.880554,762.721252 784.816833,707.256592 
	C784.811523,702.629639 784.409058,697.977844 783.835815,693.381958 
	C782.532959,682.936096 776.022339,675.664429 765.765259,672.991394 
	C751.040344,669.153809 736.306152,669.492432 721.596741,673.108948 
	C714.745483,674.793518 709.267334,678.514709 707.731934,685.615601 
	C706.178467,692.799561 704.967651,700.221680 704.937622,707.544922 
	C704.711426,762.675720 704.804260,817.807800 704.832031,872.939514 
	C704.834229,877.266052 704.886047,881.612427 705.289673,885.914429 
	C705.918152,892.612244 708.014038,898.773071 713.612854,904.073547 
M780.406738,623.720276 
	C781.273193,621.274658 782.783813,618.858398 782.896606,616.378479 
	C783.435120,604.533752 784.599915,592.583923 783.574585,580.843323 
	C782.733154,571.208374 777.704956,562.798889 767.143494,560.085938 
	C752.128601,556.229126 737.020813,556.237793 721.972168,560.071899 
	C715.876831,561.624878 710.581543,564.722961 708.561768,570.905823 
	C706.507080,577.195251 704.657227,583.763489 704.211975,590.311218 
	C703.701050,597.824402 704.654114,605.464233 705.289856,613.022278 
	C706.420166,626.459290 716.833313,636.597046 730.028503,636.921326 
	C738.833740,637.137756 747.667603,637.062195 756.462158,636.606812 
	C766.045288,636.110535 774.857300,633.603821 780.406738,623.720276 
M393.490448,233.059784 
	C401.939606,231.593170 408.770477,227.739243 411.641388,219.228729 
	C416.741425,204.110153 416.335724,188.697815 412.633545,173.403473 
	C410.439575,164.339722 404.174988,158.944229 395.023407,156.990387 
	C380.703918,153.933243 366.426605,154.012329 352.193878,157.554352 
	C339.985809,160.592545 336.336670,169.380447 335.459351,181.153992 
	C334.768799,190.420715 334.717712,199.797943 335.266846,209.073746 
	C335.686310,216.158630 338.303009,223.040344 343.649811,227.923386 
	C349.887146,233.619736 358.324280,234.357315 366.211670,234.758743 
	C375.049835,235.208557 383.967651,234.093674 393.490448,233.059784 
z"/>
<path fill="#010101" opacity="1.000000" stroke="none" 
	d="
M693.267395,173.875488 
	C694.214111,182.096100 695.557434,189.971603 695.570557,197.849304 
	C695.719299,287.153351 695.682434,376.457703 695.625000,465.761963 
	C695.621094,471.892365 695.761292,478.157928 694.614990,484.126434 
	C691.571960,499.971375 683.099243,504.919769 667.808105,506.752991 
	C659.649597,507.731110 651.346252,507.665131 643.105042,507.750763 
	C631.055237,507.875977 621.704773,501.133087 617.325134,489.621704 
	C616.945496,488.623901 616.138367,487.788757 616.048950,487.654999 
	C608.453491,492.423401 601.468689,497.592316 593.796875,501.364014 
	C588.178589,504.126099 581.747314,506.022003 575.521057,506.595398 
	C562.748047,507.771790 549.712280,508.090057 537.297424,504.431183 
	C526.244019,501.173523 515.666199,496.203827 506.576752,488.916779 
	C499.566406,483.296509 492.596436,477.445343 486.555664,470.831757 
	C471.267151,454.093536 460.498840,434.953186 456.117859,412.290924 
	C453.682220,399.691498 453.084991,386.955902 454.342773,374.559448 
	C456.785614,350.483673 466.179962,328.999664 482.208496,310.318481 
	C493.215118,297.490295 505.369507,286.443420 520.177979,278.330872 
	C530.153748,272.865845 540.872070,269.551239 552.115540,268.412994 
	C570.272217,266.574951 587.756409,268.814148 603.271057,279.365814 
	C607.336121,282.130463 610.831360,285.732971 615.247620,289.515442 
	C615.342590,287.509888 615.484619,285.851410 615.490356,284.192505 
	C615.605103,250.872147 615.640564,217.551239 615.889893,184.231934 
	C615.919800,180.231750 616.856812,176.184448 617.781799,172.255096 
	C620.463989,160.860214 629.029480,157.209290 639.488647,155.970093 
	C651.574768,154.538116 663.548035,154.460526 675.570068,156.888107 
	C685.101746,158.812790 690.542419,164.496674 693.267395,173.875488 
M556.384338,351.756866 
	C532.563965,363.921295 526.828613,394.095154 544.914795,414.173096 
	C555.963562,426.438690 569.983704,430.873749 585.995178,425.964203 
	C601.366821,421.250854 610.351013,410.023346 613.245728,394.592926 
	C616.249023,378.583496 609.805908,365.212830 597.609558,355.374329 
	C585.399597,345.524963 571.238770,345.828430 556.384338,351.756866 
z"/>
<path fill="#010101" opacity="1.000000" stroke="none" 
	d="
M615.638672,848.675293 
	C608.185913,865.067078 603.842590,882.478699 593.731262,897.206665 
	C582.072083,914.189148 555.839600,916.284912 542.023804,904.749634 
	C532.476257,896.777771 527.872620,886.466553 523.276489,876.085510 
	C516.981262,861.866760 512.276245,846.945435 506.846527,832.341309 
	C504.154816,825.101440 501.366699,817.897522 498.098053,809.298401 
	C495.461517,815.806519 493.178284,821.077881 491.175049,826.453552 
	C484.112885,845.404846 477.313171,864.455566 470.088989,883.344299 
	C464.759827,897.278259 455.692932,908.174561 440.564453,911.289185 
	C429.916016,913.481445 419.608978,912.002991 410.117493,904.586914 
	C398.879120,895.806091 395.275879,883.182007 390.114868,871.210999 
	C384.838074,858.971313 379.916931,846.577759 374.880890,834.234924 
	C369.222198,820.365967 363.652618,806.460388 357.964203,792.603699 
	C352.024231,778.134277 345.791199,763.782104 340.049957,749.235168 
	C334.146881,734.278198 327.780670,719.405823 323.375305,703.993896 
	C320.850983,695.162598 326.228943,686.994446 333.324249,681.453491 
	C343.588928,673.437439 355.804504,669.250610 368.534454,667.359863 
	C381.237793,665.472900 393.849915,670.323120 399.261780,684.929749 
	C408.981842,711.164246 419.053741,737.268433 428.985657,763.424438 
	C429.909943,765.858521 430.884491,768.273560 432.198700,771.622559 
	C435.345734,763.388306 438.256226,755.993530 441.002319,748.538208 
	C445.538849,736.221741 449.947418,723.858276 454.453644,711.530579 
	C456.760437,705.219849 458.486633,698.580872 461.637970,692.714905 
	C475.183807,667.500488 503.630829,661.515686 525.022339,680.518005 
	C534.579346,689.007690 537.618713,700.794312 541.828552,711.985901 
	C548.835571,730.613586 555.536865,749.356201 562.395447,768.039978 
	C562.709290,768.894836 563.302673,769.647095 564.237061,771.260986 
	C568.398743,759.918884 572.180359,749.310181 576.178711,738.783875 
	C582.736267,721.520142 588.909973,704.083496 596.221130,687.140747 
	C603.543518,670.171753 617.843140,663.239624 636.313477,669.029358 
	C647.293457,672.471191 657.388000,677.633057 665.469238,686.047974 
	C673.297546,694.199646 674.149475,703.889893 670.304626,713.940125 
	C663.302307,732.243958 655.976318,750.426453 648.598572,768.583740 
	C637.778442,795.212830 626.794006,821.775208 615.638672,848.675293 
z"/>
<path fill="#010101" opacity="1.000000" stroke="none" 
	d="
M231.018372,177.986877 
	C244.196426,182.011627 255.069611,189.402542 265.013123,198.003983 
	C269.683075,202.043594 273.434174,207.336746 276.888367,212.535721 
	C280.229065,217.563828 279.377686,223.087936 277.091461,228.611832 
	C271.357941,242.464966 263.176758,254.419571 251.022949,263.389130 
	C244.501007,268.202362 237.252701,269.167023 229.447037,267.049316 
	C220.229813,264.548645 212.109711,260.333954 205.107529,253.663330 
	C194.997406,244.031921 183.072601,241.579056 169.153152,243.587112 
	C160.801697,244.791916 153.670761,246.805801 147.682373,252.638275 
	C136.809860,263.227753 139.951111,283.552368 153.659424,290.220062 
	C159.767548,293.191040 165.955124,297.014740 172.454620,297.901825 
	C180.178925,298.956055 187.476257,303.719727 195.714615,301.174713 
	C196.369095,300.972504 197.342499,302.127655 198.238235,302.315338 
	C200.238571,302.734467 202.284836,302.932129 204.309464,303.239288 
	C204.897842,303.328522 205.501114,303.415253 206.055511,303.618073 
	C211.207642,305.502930 216.350983,307.411804 221.494202,309.320953 
	C221.644485,309.376770 221.784607,309.616699 221.896896,309.595764 
	C228.805481,308.310303 233.646851,313.598633 239.631989,315.321259 
	C245.907822,317.127563 251.615158,320.842407 257.842560,322.901917 
	C264.479889,325.096985 269.133636,329.423218 273.828186,334.260040 
	C287.366882,348.208954 294.472351,364.940216 297.060547,384.003418 
	C299.700836,403.450470 298.383759,422.568665 291.838623,440.987152 
	C285.432617,459.014069 275.073242,474.679291 259.146118,485.826141 
	C215.784546,516.173523 169.051849,520.476929 119.938789,502.558960 
	C103.382301,496.518677 88.800163,486.647552 76.693260,473.904877 
	C67.228027,463.942566 58.238560,453.377228 54.588043,439.332611 
	C53.080021,433.530823 55.040054,428.944519 57.385845,424.477661 
	C63.247536,413.315887 71.462044,403.821625 82.365158,397.563019 
	C90.428619,392.934448 99.521126,391.337494 108.678543,396.075104 
	C115.393723,399.549225 121.929596,403.008514 126.788452,409.149628 
	C128.592407,411.429688 131.714386,412.641296 134.127823,414.481110 
	C134.809570,415.000824 135.134674,416.006195 135.580734,416.812378 
	C136.047729,417.656464 136.253906,418.775330 136.932648,419.352325 
	C149.268295,429.838165 162.123260,439.298737 179.570358,437.952057 
	C186.153610,437.443939 192.184296,435.559387 198.408066,432.664276 
	C204.555847,429.804504 210.009705,426.421692 212.551193,420.926392 
	C220.211853,404.362274 218.125320,392.640015 199.353241,382.772583 
	C187.206619,376.387756 173.622177,375.403442 160.742584,371.785034 
	C154.392975,370.001190 148.128479,367.916412 141.809509,366.020996 
	C123.650352,360.574036 106.499199,352.761719 90.772659,342.299225 
	C85.652802,338.893097 82.062149,333.011169 78.191475,327.941376 
	C70.034294,317.257111 65.309082,304.930603 62.053917,292.019592 
	C59.057056,280.133026 59.667095,268.203888 61.010384,256.073669 
	C62.928040,238.756851 69.405296,223.462784 79.495857,209.639297 
	C94.617264,188.923843 114.894524,176.089584 140.127701,170.966965 
	C154.379852,168.073608 168.701599,167.137253 183.177216,167.950470 
	C199.500610,168.867462 215.409485,171.764496 231.018372,177.986877 
z"/>
<path fill="#010101" opacity="1.000000" stroke="none" 
	d="
M174.127045,840.117798 
	C184.489990,840.365479 194.124695,838.964966 202.657028,833.767029 
	C209.650208,829.506714 215.265244,824.025208 214.242859,814.563477 
	C214.046173,812.743286 215.600662,810.799622 215.966599,808.841858 
	C217.925537,798.361633 212.001709,792.100098 203.649643,787.999817 
	C195.297211,783.899292 186.882080,779.909485 177.280487,778.756226 
	C170.394943,777.929138 163.715652,775.324768 156.966446,773.434387 
	C138.034348,768.131897 119.921417,760.654114 102.516884,751.643250 
	C92.269234,746.337769 83.609230,738.839050 77.013664,729.022827 
	C69.460052,717.780884 64.438393,705.611389 62.424770,692.297546 
	C61.208435,684.255310 60.656528,676.102661 60.074726,667.980408 
	C59.904350,665.601868 60.915131,663.157593 60.918041,660.742920 
	C60.921562,657.819397 60.429974,654.895325 60.180817,652.268555 
	C61.449348,649.550293 63.336479,646.865479 63.972275,643.911377 
	C66.897118,630.321167 74.091354,618.902893 82.426018,608.284912 
	C99.382599,586.682922 122.382828,575.450500 149.164200,571.635071 
	C182.576080,566.875061 214.868515,570.925354 245.106827,586.312622 
	C256.280640,591.998596 265.977539,600.159119 273.953766,610.140930 
	C279.764771,617.413086 280.128784,624.891602 276.324005,633.140564 
	C270.530609,645.701050 262.776855,657.003479 252.126114,665.614868 
	C245.792786,670.735474 237.226440,671.206055 228.982758,669.504089 
	C220.314896,667.714539 213.155685,663.274353 206.757446,657.300598 
	C198.984604,650.043457 190.386826,644.756531 179.037811,645.949402 
	C173.335083,646.548828 167.320190,645.647888 161.894562,647.099915 
	C151.472565,649.888916 142.957565,655.809387 141.216721,667.443359 
	C139.679489,677.716675 143.667587,686.330872 152.567917,691.666077 
	C158.728577,695.359070 165.465988,698.964111 172.388962,700.284851 
	C180.621613,701.855347 188.572739,704.371338 196.749359,706.034851 
	C205.243942,707.763123 213.553802,710.947388 222.102524,711.700623 
	C229.959778,712.392883 235.998245,716.894226 243.073807,719.075073 
	C250.419800,721.339294 257.702301,724.735474 264.086182,729.017700 
	C281.622498,740.780701 291.720551,757.929504 295.835815,778.320801 
	C300.076294,799.332458 299.341003,820.449219 292.691132,840.909363 
	C285.015289,864.526123 270.324158,882.628601 248.554947,895.153931 
	C232.677292,904.289490 215.952454,911.088928 197.954971,913.615417 
	C186.065857,915.284485 173.794617,915.069885 161.743713,914.552185 
	C143.626785,913.773926 126.225838,909.216309 110.140862,900.744080 
	C99.454613,895.115479 88.880508,888.942810 80.758553,879.769714 
	C73.075760,871.092468 65.505669,862.213257 58.881424,852.727722 
	C51.158508,841.668823 53.201965,830.398254 61.384876,820.318176 
	C67.560646,812.710510 74.370667,805.829102 82.363731,799.797302 
	C90.776482,793.448853 98.817894,795.597839 106.967079,797.923706 
	C116.173813,800.551331 122.855049,807.524719 129.403671,814.105286 
	C138.249863,822.994690 147.180710,831.735168 158.962173,836.549438 
	C163.572266,838.433228 168.739304,838.953979 174.127045,840.117798 
z"/>
<path fill="#010101" opacity="1.000000" stroke="none" 
	d="
M1044.000000,704.711243 
	C1044.887329,698.677307 1045.486938,693.056763 1046.653809,687.556519 
	C1049.322754,674.975464 1058.738403,671.029907 1070.105347,670.084106 
	C1075.744019,669.614929 1081.426270,669.518494 1087.088989,669.513489 
	C1134.584717,669.471252 1182.080566,669.547119 1229.576050,669.452698 
	C1243.072876,669.425842 1254.396606,673.765137 1263.532349,683.989990 
	C1275.749023,697.663147 1276.333618,721.485107 1263.493530,734.645874 
	C1248.339600,750.178345 1231.991821,764.548279 1216.114868,779.372192 
	C1208.706421,786.289185 1201.182373,793.082153 1193.721069,799.942566 
	C1183.116333,809.693176 1172.521240,819.454163 1161.227783,829.849854 
	C1163.501343,829.990173 1164.886230,830.149353 1166.271118,830.150269 
	C1189.769043,830.165771 1213.268311,830.013733 1236.763916,830.251587 
	C1243.855835,830.323364 1251.127075,830.665771 1257.980225,832.296387 
	C1269.441895,835.023682 1275.212524,840.436523 1277.736572,855.597046 
	C1279.779907,867.869324 1279.229492,880.157288 1276.287109,892.472961 
	C1273.656616,903.483765 1265.571777,907.250732 1256.329224,909.651245 
	C1251.633667,910.870911 1246.523438,910.790283 1241.600464,910.792725 
	C1185.107300,910.820129 1128.613892,910.620789 1072.121338,910.781677 
	C1054.102783,910.833069 1037.270142,895.931152 1034.207520,877.971497 
	C1031.748291,863.550293 1035.514893,851.549622 1046.256348,841.584106 
	C1053.149414,835.189026 1059.588989,828.298706 1066.575928,822.012695 
	C1077.369385,812.301819 1088.505981,802.973450 1099.401978,793.374878 
	C1105.890503,787.658752 1112.107300,781.633545 1118.609985,775.934021 
	C1125.709473,769.711365 1133.054932,763.770020 1140.171875,757.566895 
	C1142.608643,755.443176 1144.678955,752.898987 1147.590210,749.838745 
	C1145.208618,749.838745 1143.633057,749.844299 1142.057373,749.837830 
	C1121.061401,749.752136 1100.063232,749.808167 1079.070923,749.481323 
	C1073.515015,749.394897 1067.765015,748.839355 1062.474976,747.258484 
	C1050.922363,743.806030 1044.636719,734.554382 1044.153809,722.166626 
	C1043.994385,718.079041 1043.267212,714.014954 1043.063599,709.927002 
	C1042.985596,708.363342 1043.645874,706.762939 1044.000000,704.711243 
z"/>
<path fill="#010101" opacity="1.000000" stroke="none" 
	d="
M1307.998535,796.812988 
	C1307.787231,777.870483 1310.037842,759.672913 1316.476807,742.384155 
	C1320.789307,730.804810 1327.138306,720.200684 1335.117798,710.417542 
	C1346.667480,696.257202 1360.571167,685.485840 1376.865356,677.682312 
	C1390.330566,671.233765 1404.596436,667.464417 1419.495117,665.954651 
	C1438.913452,663.986938 1458.064819,664.515259 1477.060425,669.699463 
	C1497.491821,675.275574 1514.098999,686.270813 1527.233154,702.792969 
	C1541.784180,721.097290 1548.588257,742.002502 1547.826782,765.227905 
	C1547.253906,782.696838 1542.415283,798.434326 1526.723145,808.721375 
	C1518.491089,814.117920 1509.503906,816.610046 1499.597534,816.566284 
	C1466.111328,816.418335 1432.624146,816.509888 1399.137329,816.509888 
	C1397.848267,816.509888 1396.559082,816.509949 1394.877808,816.509949 
	C1394.554443,826.646545 1400.485596,832.476501 1407.765747,836.938782 
	C1421.901733,845.603455 1437.257690,848.248047 1453.855591,846.497986 
	C1466.841919,845.128784 1479.059937,842.095154 1491.164673,837.224365 
	C1507.461548,830.666809 1519.050537,835.064270 1527.600830,850.799194 
	C1531.294678,857.596619 1534.254761,865.207092 1535.563477,872.790710 
	C1537.613403,884.669556 1531.820923,894.064636 1522.173584,900.622498 
	C1511.667603,907.763977 1499.621460,910.883057 1487.157715,913.128479 
	C1468.064087,916.568359 1448.770142,916.992432 1429.583374,916.652405 
	C1417.203613,916.432861 1404.628052,913.784241 1392.607422,910.509583 
	C1380.210938,907.132446 1368.300415,901.793274 1357.729370,894.150208 
	C1346.409668,885.965820 1337.300659,875.713318 1329.671265,864.004211 
	C1322.106323,852.394348 1316.580688,839.933350 1313.208618,826.562927 
	C1311.508301,819.821350 1310.596069,812.879272 1309.372192,806.019897 
	C1308.855103,803.121338 1308.453125,800.202271 1307.998535,796.812988 
M1434.001953,737.314026 
	C1413.063843,740.579163 1393.573608,758.797058 1394.277466,774.805908 
	C1414.534668,774.805908 1434.814819,775.078003 1455.081543,774.675842 
	C1463.531006,774.508179 1468.613403,768.908508 1468.736694,761.060181 
	C1468.839722,754.502380 1466.945923,748.604065 1461.692627,744.180786 
	C1453.863647,737.588623 1444.510620,736.904358 1434.001953,737.314026 
z"/>
<path fill="#010101" opacity="1.000000" stroke="none" 
	d="
M1240.952515,485.774414 
	C1235.210693,497.027679 1225.306885,502.306152 1214.333130,505.938202 
	C1187.068726,514.962097 1158.878784,514.987061 1130.683960,513.677734 
	C1105.285034,512.498169 1082.057251,504.144409 1061.738525,488.930267 
	C1047.751221,478.457001 1038.127686,464.157135 1030.035767,448.701172 
	C1023.587646,436.385040 1019.770691,423.230927 1017.288635,409.820953 
	C1015.665771,401.052643 1016.596436,391.812286 1016.376831,382.783508 
	C1016.041809,369.012207 1018.667786,355.665588 1023.253601,342.825226 
	C1028.006470,329.516846 1034.822632,317.395630 1044.125977,306.397156 
	C1066.622314,279.801941 1095.768799,266.725006 1129.546143,263.298645 
	C1153.366089,260.882355 1177.036621,262.360962 1199.255737,272.752625 
	C1229.757080,287.017883 1248.025879,310.814026 1253.993164,343.952942 
	C1256.268188,356.587250 1255.862305,369.181305 1252.520752,381.622375 
	C1247.310181,401.021851 1228.301758,414.369720 1208.215454,414.232117 
	C1174.887207,414.003754 1141.556396,414.170166 1108.226685,414.170349 
	C1106.409302,414.170380 1104.591797,414.170380 1102.395264,414.170380 
	C1102.596802,424.343018 1108.440918,430.251831 1116.108154,435.145081 
	C1131.370972,444.885681 1148.145386,445.186371 1165.371094,443.679596 
	C1178.085327,442.567474 1189.895020,438.367859 1201.704102,434.042999 
	C1215.710815,428.913391 1225.578613,433.861298 1233.494751,445.516724 
	C1239.096558,453.764709 1243.016479,462.886230 1243.425415,472.948120 
	C1243.592651,477.060455 1241.900635,481.248352 1240.952515,485.774414 
M1114.064453,348.547668 
	C1107.209717,354.860168 1101.822266,361.939667 1101.608643,372.500824 
	C1109.941528,372.500824 1118.022705,372.543915 1126.103271,372.490814 
	C1138.401733,372.409943 1150.716309,372.613007 1162.992188,372.027924 
	C1172.158203,371.591064 1176.600708,365.929504 1176.222412,356.764252 
	C1175.787964,346.239227 1167.951050,338.156372 1156.871582,335.911407 
	C1140.561035,332.606476 1126.757812,337.334381 1114.064453,348.547668 
z"/>
<path fill="#010101" opacity="1.000000" stroke="none" 
	d="
M1473.187622,462.305817 
	C1458.724609,494.575073 1444.440186,526.502197 1430.144531,558.424316 
	C1423.941895,572.275269 1417.955322,586.229614 1411.438599,599.931519 
	C1403.893677,615.795044 1392.915527,619.048828 1376.438354,614.248657 
	C1366.277222,611.288269 1356.363770,607.570496 1347.781128,600.947876 
	C1337.646484,593.127686 1334.367310,582.911316 1339.301392,570.756104 
	C1343.762939,559.765381 1347.594238,548.511597 1352.271118,537.617493 
	C1357.647583,525.093323 1363.642334,512.834473 1369.379028,500.465057 
	C1372.748047,493.200867 1376.228149,485.985596 1379.423950,478.646210 
	C1379.929932,477.484314 1379.641113,475.518280 1378.963989,474.369476 
	C1371.594360,461.864777 1364.020142,449.480927 1356.612793,436.998230 
	C1351.176025,427.836273 1346.000244,418.519135 1340.540894,409.371033 
	C1325.911255,384.856934 1310.863770,360.584564 1296.669922,335.821991 
	C1291.007202,325.943054 1284.311035,316.546997 1281.068359,305.243835 
	C1278.975342,297.947968 1281.468018,292.120422 1285.545166,287.361542 
	C1294.928223,276.409790 1306.794189,268.575409 1320.583740,264.065674 
	C1334.428223,259.537994 1346.150879,263.997559 1353.646118,276.548798 
	C1374.667725,311.751068 1395.586914,347.014496 1416.570801,382.239258 
	C1417.435547,383.690796 1418.546387,384.995758 1419.968872,386.956604 
	C1426.522339,371.905884 1432.512451,357.690399 1438.877197,343.644714 
	C1447.290771,325.077820 1455.993530,306.641937 1464.582764,288.154785 
	C1466.136230,284.811066 1467.666870,281.453430 1469.337036,278.167755 
	C1475.210083,266.613373 1482.786987,262.276642 1495.487549,264.179962 
	C1508.928223,266.194183 1521.143799,271.210693 1532.208984,279.493469 
	C1543.986816,288.309631 1545.533203,301.198059 1540.267090,312.950684 
	C1526.294189,344.134705 1512.172607,375.252167 1498.160034,406.418427 
	C1489.845459,424.911072 1481.624634,443.445831 1473.187622,462.305817 
z"/>
<path fill="#010101" opacity="1.000000" stroke="none" 
	d="
M945.093628,297.909302 
	C963.106018,316.857788 973.873718,339.092407 977.737610,364.455933 
	C979.277649,374.565338 979.528931,384.930969 979.632446,395.187378 
	C979.883057,420.009888 979.797119,444.837494 979.621460,469.661438 
	C979.581970,475.243988 979.122559,480.924194 977.989258,486.379272 
	C974.800232,501.729584 967.562988,504.407806 955.421143,506.551239 
	C946.080811,508.200134 936.261841,508.527924 926.804382,507.714783 
	C918.125061,506.968567 909.043518,504.281647 904.160645,496.153992 
	C901.294067,491.382355 899.353882,485.280884 899.266602,479.741821 
	C898.800110,450.112823 899.281250,420.469421 898.882629,390.838440 
	C898.785522,383.622192 897.476379,376.146606 895.204590,369.294189 
	C890.843079,356.138397 874.964844,347.251740 860.206604,347.823303 
	C852.084229,348.137878 844.306152,348.564850 837.235413,353.040405 
	C823.943298,361.453796 819.034851,374.001740 819.052307,389.135406 
	C819.085327,417.792450 819.206848,446.451904 818.847595,475.104797 
	C818.775085,480.889343 817.380371,486.876251 815.454285,492.369843 
	C812.157593,501.772705 804.018372,505.516693 794.892212,506.563293 
	C786.055298,507.576721 777.068237,508.165741 768.204346,507.742737 
	C762.450256,507.468109 756.373535,505.915283 751.198792,503.385712 
	C742.970764,499.363617 739.526367,491.065948 739.462952,482.636688 
	C739.022949,424.169556 739.054504,365.698517 739.066772,307.228729 
	C739.068176,300.389282 739.150330,293.403168 740.498657,286.749207 
	C742.050903,279.088715 746.210999,272.892487 754.576721,270.521423 
	C769.415955,266.315582 784.396057,266.252899 799.273743,269.466675 
	C811.444458,272.095673 816.362793,278.770508 817.896057,292.305115 
	C817.982361,293.067108 818.015808,293.835114 818.073792,294.600311 
	C818.597168,295.036346 819.120483,295.472382 819.643860,295.908417 
	C821.534851,293.431000 823.221985,290.760956 825.350281,288.507721 
	C838.175903,274.929565 854.053589,267.377838 872.655457,267.361633 
	C896.753113,267.340607 918.721252,274.327759 937.113403,290.641724 
	C939.716248,292.950470 942.269836,295.314728 945.093628,297.909302 
z"/>
<path fill="#010101" opacity="1.000000" stroke="none" 
	d="
M857.987610,749.117432 
	C851.574768,749.411987 845.132141,749.414856 838.755981,750.067871 
	C828.595398,751.108521 819.849121,741.009216 818.305725,732.867920 
	C816.822815,725.045288 815.655457,716.878967 816.276917,709.015991 
	C816.989807,699.996521 816.876038,690.681885 821.065430,682.059753 
	C824.783325,674.407959 831.143433,671.513000 838.762146,671.138489 
	C845.307068,670.816711 851.910950,671.694519 858.910889,672.064087 
	C858.910889,663.807983 858.892883,655.673218 858.915222,647.538574 
	C858.945496,636.540833 858.908813,625.541626 859.087585,614.546082 
	C859.213806,606.784119 861.174866,599.490479 867.567993,594.534729 
	C870.625305,592.164795 874.445923,590.216797 878.205505,589.418762 
	C890.612732,586.785400 903.202332,586.126160 915.671875,589.061340 
	C932.954407,593.129333 937.191528,600.870911 937.892700,615.914429 
	C938.683411,632.878784 938.348267,649.895691 938.499023,666.889709 
	C938.513489,668.520508 938.501038,670.151489 938.501038,670.998779 
	C952.643188,670.998779 966.389954,670.946411 980.136230,671.013306 
	C994.286316,671.082214 1004.404968,679.065674 1006.796387,692.532288 
	C1007.803345,698.202515 1007.963074,704.060303 1008.086060,709.841797 
	C1008.274902,718.720581 1008.092163,727.585754 1004.416992,735.971130 
	C1000.385803,745.168701 992.537781,749.221436 983.398682,749.796082 
	C970.975769,750.577148 958.466858,750.057678 945.996155,749.947998 
	C943.641663,749.927246 941.293335,749.215637 938.496094,748.748291 
	C938.496094,763.116028 938.436646,776.907715 938.516418,790.698608 
	C938.572327,800.359253 938.628662,810.026733 939.035767,819.676392 
	C939.402588,828.371948 944.207764,834.690308 954.684204,835.136536 
	C962.257935,835.459106 969.891357,835.885864 977.343323,837.166809 
	C985.945557,838.645386 991.778381,844.060242 993.917236,852.651367 
	C997.384644,866.578674 996.996094,880.556824 992.728577,894.229309 
	C989.796021,903.624939 982.419861,908.543945 973.056885,909.613220 
	C963.736816,910.677673 954.211548,911.522461 944.906494,910.795837 
	C928.303650,909.499390 911.763855,906.961426 896.775330,898.890686 
	C880.863281,890.322754 870.352905,877.413452 864.691040,860.064880 
	C859.812378,845.116028 858.911377,829.885376 858.910706,814.433533 
	C858.909790,793.270264 858.904053,772.106934 858.905518,750.201660 
	C858.602905,749.345642 858.295288,749.231506 857.987610,749.117432 
z"/>
<path fill="#010101" opacity="1.000000" stroke="none" 
	d="
M1617.096069,669.998962 
	C1625.197510,670.330872 1632.865234,670.212036 1640.416626,671.091309 
	C1654.860229,672.773132 1661.330811,679.197205 1664.341797,694.327820 
	C1670.750610,684.746460 1680.279297,679.955627 1689.616089,674.751648 
	C1704.645996,666.374390 1720.568970,666.484009 1736.626099,669.690002 
	C1743.401489,671.042786 1750.024780,673.873108 1756.281982,676.924377 
	C1764.072144,680.723145 1767.270996,688.047058 1767.929565,696.313049 
	C1769.215942,712.457520 1764.930298,727.279968 1755.940308,740.614319 
	C1747.869629,752.585327 1738.375854,754.519226 1723.965088,750.531799 
	C1714.838379,748.006409 1705.811523,744.559692 1696.400269,745.198120 
	C1680.799927,746.256348 1664.707031,758.564758 1664.924194,776.746887 
	C1665.318237,809.729431 1665.091064,842.720703 1664.918945,875.707275 
	C1664.893433,880.600403 1663.905396,885.512695 1663.101074,890.372864 
	C1660.974976,903.220947 1650.598145,908.772278 1638.734497,909.819214 
	C1630.850952,910.514893 1622.830078,911.491333 1615.025635,910.737976 
	C1607.086670,909.971497 1599.030151,908.633972 1592.381226,902.828003 
	C1585.114746,896.482666 1584.675903,888.200928 1584.642090,879.874146 
	C1584.470825,837.724182 1584.507690,795.573059 1584.596436,753.422607 
	C1584.638550,733.434814 1584.330200,713.413513 1585.411987,693.474182 
	C1585.973999,683.118286 1590.090332,674.839844 1602.402832,672.183289 
	C1607.078003,671.174561 1611.870605,670.710999 1617.096069,669.998962 
z"/>
<path fill="#010101" opacity="1.000000" stroke="none" 
	d="
M415.072937,442.000000 
	C415.047150,453.662476 415.500366,464.854645 414.811615,475.976074 
	C414.413574,482.403198 412.958893,489.030884 410.565979,495.001709 
	C407.517609,502.608093 400.413940,506.127258 392.631165,506.780487 
	C381.774750,507.691681 370.831879,508.023407 359.935486,507.880310 
	C349.084717,507.737823 340.341492,499.389923 335.813507,489.246429 
	C333.459045,483.972015 335.302094,479.551331 335.281891,474.919891 
	C335.020538,415.111389 335.185547,355.300964 335.307495,295.491119 
	C335.316162,291.239838 334.530060,286.243011 336.434479,282.924957 
	C338.897858,278.632996 343.108551,274.145142 347.595184,272.427521 
	C364.104065,266.107361 381.206024,266.214233 398.143372,271.091064 
	C407.180054,273.693054 413.803406,282.132019 413.944458,291.192566 
	C414.446960,323.466187 414.782043,355.742859 415.046814,388.019501 
	C415.193024,405.845215 415.072968,423.673096 415.072937,442.000000 
z"/>
<path fill="#010101" opacity="1.000000" stroke="none" 
	d="
M713.333679,903.828735 
	C708.014038,898.773071 705.918152,892.612244 705.289673,885.914429 
	C704.886047,881.612427 704.834229,877.266052 704.832031,872.939514 
	C704.804260,817.807800 704.711426,762.675720 704.937622,707.544922 
	C704.967651,700.221680 706.178467,692.799561 707.731934,685.615601 
	C709.267334,678.514709 714.745483,674.793518 721.596741,673.108948 
	C736.306152,669.492432 751.040344,669.153809 765.765259,672.991394 
	C776.022339,675.664429 782.532959,682.936096 783.835815,693.381958 
	C784.409058,697.977844 784.811523,702.629639 784.816833,707.256592 
	C784.880554,762.721252 784.901917,818.186157 784.776367,873.650574 
	C784.764526,878.893494 784.064087,884.210632 783.025940,889.360779 
	C780.260864,903.076477 773.021912,907.945557 760.143799,909.647278 
	C752.161133,910.702087 743.966003,911.348694 735.970337,910.761353 
	C728.226868,910.192505 720.273315,908.920227 713.333679,903.828735 
z"/>
<path fill="#020202" opacity="1.000000" stroke="none" 
	d="
M780.228394,624.053467 
	C774.857300,633.603821 766.045288,636.110535 756.462158,636.606812 
	C747.667603,637.062195 738.833740,637.137756 730.028503,636.921326 
	C716.833313,636.597046 706.420166,626.459290 705.289856,613.022278 
	C704.654114,605.464233 703.701050,597.824402 704.211975,590.311218 
	C704.657227,583.763489 706.507080,577.195251 708.561768,570.905823 
	C710.581543,564.722961 715.876831,561.624878 721.972168,560.071899 
	C737.020813,556.237793 752.128601,556.229126 767.143494,560.085938 
	C777.704956,562.798889 782.733154,571.208374 783.574585,580.843323 
	C784.599915,592.583923 783.435120,604.533752 782.896606,616.378479 
	C782.783813,618.858398 781.273193,621.274658 780.228394,624.053467 
z"/>
<path fill="#020202" opacity="1.000000" stroke="none" 
	d="
M393.170624,233.359711 
	C383.967651,234.093674 375.049835,235.208557 366.211670,234.758743 
	C358.324280,234.357315 349.887146,233.619736 343.649811,227.923386 
	C338.303009,223.040344 335.686310,216.158630 335.266846,209.073746 
	C334.717712,199.797943 334.768799,190.420715 335.459351,181.153992 
	C336.336670,169.380447 339.985809,160.592545 352.193878,157.554352 
	C366.426605,154.012329 380.703918,153.933243 395.023407,156.990387 
	C404.174988,158.944229 410.439575,164.339722 412.633545,173.403473 
	C416.335724,188.697815 416.741425,204.110153 411.641388,219.228729 
	C408.770477,227.739243 401.939606,231.593170 393.170624,233.359711 
z"/>
<path fill="#DFDFDF" opacity="1.000000" stroke="none" 
	d="
M858.059326,749.313538 
	C858.295288,749.231506 858.602905,749.345642 858.838867,749.738403 
	C858.477783,749.944763 858.265747,749.775635 858.059326,749.313538 
z"/>
<path fill="#FDFDFD" opacity="1.000000" stroke="none" 
	d="
M556.700195,351.545349 
	C571.238770,345.828430 585.399597,345.524963 597.609558,355.374329 
	C609.805908,365.212830 616.249023,378.583496 613.245728,394.592926 
	C610.351013,410.023346 601.366821,421.250854 585.995178,425.964203 
	C569.983704,430.873749 555.963562,426.438690 544.914795,414.173096 
	C526.828613,394.095154 532.563965,363.921295 556.700195,351.545349 
z"/>
<path fill="#FBFBFB" opacity="1.000000" stroke="none" 
	d="
M1434.447998,737.261963 
	C1444.510620,736.904358 1453.863647,737.588623 1461.692627,744.180786 
	C1466.945923,748.604065 1468.839722,754.502380 1468.736694,761.060181 
	C1468.613403,768.908508 1463.531006,774.508179 1455.081543,774.675842 
	C1434.814819,775.078003 1414.534668,774.805908 1394.277466,774.805908 
	C1393.573608,758.797058 1413.063843,740.579163 1434.447998,737.261963 
z"/>
<path fill="#FDFDFD" opacity="1.000000" stroke="none" 
	d="
M1114.321655,348.303833 
	C1126.757812,337.334381 1140.561035,332.606476 1156.871582,335.911407 
	C1167.951050,338.156372 1175.787964,346.239227 1176.222412,356.764252 
	C1176.600708,365.929504 1172.158203,371.591064 1162.992188,372.027924 
	C1150.716309,372.613007 1138.401733,372.409943 1126.103271,372.490814 
	C1118.022705,372.543915 1109.941528,372.500824 1101.608643,372.500824 
	C1101.822266,361.939667 1107.209717,354.860168 1114.321655,348.303833 
z"/>
</svg>