<svg version="1.1" id="Layer_1" xmlns="http://www.w3.org/2000/svg" xmlns:xlink="http://www.w3.org/1999/xlink" x="0px" y="0px"
	 width="100%" viewBox="0 0 496 496" enable-background="new 0 0 496 496" xml:space="preserve">
<path fill="#000000" opacity="1.000000" stroke="none" 
	d="
M220.625000,0.999999 
	C225.600998,3.979021 230.180084,6.992706 234.811768,9.923214 
	C237.326004,11.513988 239.926636,11.667147 242.913925,10.901858 
	C253.535614,8.180808 264.028687,4.873610 274.925781,3.322819 
	C291.889984,0.908602 308.173248,3.268641 323.447052,11.057637 
	C331.452118,15.139894 335.346008,22.923008 338.998871,30.662029 
	C339.989044,32.759796 340.750458,34.989059 341.394592,37.222073 
	C343.064270,43.010098 344.878387,47.650581 351.987396,49.894852 
	C358.700836,52.014252 361.350739,59.836601 365.409515,65.471527 
	C366.734406,67.310913 367.058319,69.870155 369.294312,71.068581 
	C372.923340,67.721893 373.065094,61.219143 369.024200,57.482517 
	C362.188721,51.161755 355.454712,44.670460 347.633942,39.510441 
	C340.645447,34.899567 337.374542,27.096123 339.837952,20.724091 
	C341.724365,15.844630 344.076233,14.964229 348.558502,17.471884 
	C358.323547,22.935076 367.801819,28.866972 375.969360,36.563648 
	C388.323303,48.205322 398.553802,60.881924 393.575653,80.122734 
	C400.261810,77.992424 405.620941,74.156929 412.135925,72.462410 
	C413.062195,76.682579 412.671814,80.002998 409.779205,82.902931 
	C406.373199,86.317551 402.796570,89.593048 400.067780,93.626701 
	C399.053802,95.125549 397.964417,96.596489 397.988708,99.261948 
	C404.465698,99.945473 409.841278,96.577888 415.614288,95.087669 
	C416.836487,97.226280 415.069916,98.324455 414.170776,99.452789 
	C410.852570,103.616600 409.349060,108.422081 408.131378,113.520203 
	C407.137970,117.679077 408.964935,118.475113 412.358337,118.687973 
	C415.097351,118.859772 418.024445,118.094864 421.127258,120.302521 
	C418.508057,125.604652 415.864990,130.868164 412.383667,135.693619 
	C408.609344,140.925232 409.512756,145.073273 415.173096,148.320572 
	C416.328827,148.983597 417.506592,149.608124 418.674255,150.250275 
	C420.417389,151.208908 422.563080,151.984512 422.003876,154.567444 
	C421.472870,157.019989 419.906342,158.763702 417.357788,159.241638 
	C414.740875,159.732361 412.061737,159.897034 409.450836,160.412201 
	C407.272675,160.841965 405.698151,162.623322 407.600067,164.258545 
	C416.331299,171.765488 413.969574,180.080261 409.598755,188.704285 
	C417.197296,193.007690 414.422180,199.847473 413.679474,205.709381 
	C412.692566,213.499054 409.297668,220.701935 405.876556,227.748306 
	C403.421631,232.804703 402.299988,238.017105 402.238525,243.637619 
	C402.169403,249.952911 401.587921,256.263367 401.196045,262.573853 
	C401.080963,264.427002 400.543610,266.168335 399.519196,267.745178 
	C394.530151,275.424652 389.652313,283.179443 384.504211,290.750610 
	C382.813141,293.237579 382.096863,295.629700 382.216461,298.629120 
	C382.654907,309.622162 382.112793,320.534943 380.351227,331.461761 
	C378.005341,346.013184 370.845032,357.940521 361.716583,368.991699 
	C359.172546,372.071625 356.769379,375.354492 353.804535,377.983734 
	C345.268433,385.553680 342.154602,395.202850 341.188507,406.238586 
	C340.215881,417.348694 335.789001,426.839050 325.027527,432.071075 
	C323.260437,432.930176 321.454102,433.783752 318.590668,433.554657 
	C321.071564,430.059021 323.281372,426.908691 325.529419,423.785919 
	C329.324921,418.513580 331.955261,412.694702 331.525177,406.156433 
	C330.384735,388.819061 336.956726,374.682861 348.708862,362.481110 
	C350.433685,360.690277 351.970184,358.695526 353.423462,356.672699 
	C354.582001,355.060120 354.845215,353.229523 353.268768,351.667511 
	C351.766113,350.178619 350.208740,350.968658 348.702026,351.799469 
	C343.070465,354.904602 339.501892,359.863464 336.493011,365.336517 
	C331.330841,374.726135 329.295105,385.008698 328.444458,395.490112 
	C327.713898,404.492126 325.095062,413.115753 323.917786,422.019836 
	C323.246918,427.093933 318.759552,428.823120 314.565704,429.915070 
	C311.334229,430.756439 307.600159,431.423828 304.950195,427.350372 
	C310.984894,423.727448 309.603882,418.135742 308.117096,413.134613 
	C305.397736,403.987488 306.776337,396.540558 314.630951,390.506317 
	C318.056854,387.874359 319.319519,383.961456 319.787140,379.552765 
	C320.651245,371.405792 324.475067,364.293579 329.240814,357.824402 
	C339.905334,343.348175 351.500214,329.520477 359.810852,313.434540 
	C362.102020,308.999786 364.206421,304.462433 366.225739,299.896606 
	C366.950256,298.258453 367.625854,296.108887 365.503967,295.014832 
	C363.558014,294.011475 361.979431,295.520905 360.784515,296.885956 
	C359.817352,297.990936 359.150513,299.384949 358.472778,300.713196 
	C349.506805,318.285004 339.687195,335.221863 324.931946,348.796051 
	C319.112335,354.149841 318.824097,361.976501 317.642151,369.080536 
	C316.525391,375.792816 314.228271,381.837463 311.126068,387.795990 
	C306.983398,395.753204 303.018372,403.773041 301.755157,412.909760 
	C300.999725,418.373566 302.219910,423.479370 302.951050,428.719055 
	C303.272400,431.021820 304.054291,433.656342 302.088989,435.345123 
	C299.939148,437.192505 297.624603,435.299561 295.617554,434.401398 
	C284.340912,429.355164 280.513184,417.982483 285.558411,404.773193 
	C289.854218,393.525818 296.854218,384.035034 305.165466,375.507904 
	C307.699371,372.908112 308.680725,370.284821 308.742767,366.692261 
	C309.009796,351.223145 309.817871,335.774445 309.898285,320.287079 
	C309.958832,308.622009 313.772125,297.723694 321.132690,288.331512 
	C322.001068,287.223389 323.264008,286.273773 323.387360,284.164703 
	C315.884583,285.960663 309.495392,289.074524 304.726288,295.067719 
	C301.874512,298.651398 301.618652,302.908813 302.592804,306.981506 
	C306.957123,325.227997 307.116821,343.548767 304.308136,361.997467 
	C304.050842,363.687317 303.547089,365.209961 302.727173,366.681885 
	C297.135620,376.720001 291.906250,386.979340 285.902252,396.763672 
	C276.628937,411.875732 276.845825,428.357452 277.618683,445.105377 
	C277.940613,452.081512 280.338348,457.933441 284.877655,463.136078 
	C287.754944,466.433868 287.872437,470.385559 286.750641,474.461090 
	C285.372314,479.468781 283.032715,484.083771 280.925446,488.791138 
	C279.540314,491.885437 276.896973,493.450317 273.688507,492.990173 
	C270.193573,492.488953 268.902283,489.535706 268.748444,486.370850 
	C268.620392,483.735779 269.002533,481.064240 269.294403,478.423859 
	C269.562897,475.994751 270.066620,473.581696 268.365845,471.156952 
	C264.851501,479.128510 265.200928,487.923553 263.077576,496.590210 
	C260.958344,497.000000 258.916656,497.000000 256.437500,497.000000 
	C256.487549,487.402344 256.307556,477.770294 257.654633,468.216766 
	C258.651764,461.144989 259.628662,454.065063 260.358002,446.962402 
	C261.039764,440.322906 261.425140,433.557953 259.484192,427.108765 
	C253.596863,407.546783 256.047577,389.529388 266.067261,371.472412 
	C275.259399,354.906738 281.802643,336.963623 284.206055,317.841248 
	C284.812500,313.016388 284.796692,308.213531 284.677521,303.388550 
	C284.643738,302.020935 284.399139,300.631042 282.926178,300.079712 
	C281.429474,299.519501 280.376617,300.536530 279.443054,301.482330 
	C275.515594,305.461365 273.242432,310.527130 270.544037,315.298950 
	C266.678253,322.135254 262.652863,328.861877 256.924133,334.329407 
	C243.341370,347.292938 226.530930,349.655609 208.354691,341.977570 
	C192.750763,335.386108 183.732544,323.387787 179.677704,307.627655 
	C175.144897,290.009796 167.793930,273.369781 162.740280,255.961838 
	C157.157379,236.730804 155.131607,217.475555 162.885269,198.219208 
	C167.688187,186.291016 181.245544,181.803467 192.807816,188.730255 
	C191.327164,191.488052 188.192764,191.708145 185.952820,193.158432 
	C179.524353,197.320602 178.979736,199.633545 182.852676,206.006012 
	C189.931915,217.653992 192.237061,230.788635 194.298889,243.967041 
	C194.812332,247.248672 194.715195,250.661926 195.534348,253.851425 
	C196.868607,259.046661 195.729340,263.724182 193.650009,268.389038 
	C192.973434,269.906921 192.381241,271.474182 191.895569,273.063202 
	C190.201248,278.606659 191.729752,280.246674 197.283661,279.002960 
	C201.711777,278.011353 206.043915,276.621796 209.754639,274.042755 
	C217.285263,268.808807 225.335098,268.717224 233.654846,271.184174 
	C240.300156,273.154602 246.847885,275.454102 253.869553,277.748230 
	C253.789200,273.017456 251.208954,269.424744 250.769516,265.358917 
	C250.556335,263.386414 249.384476,260.622528 252.522430,259.961029 
	C255.400330,259.354340 255.920761,261.756378 256.499908,263.973785 
	C258.188843,270.440247 260.563263,276.647797 263.833832,282.502319 
	C265.074554,284.723297 266.500061,286.674652 268.788635,287.965271 
	C274.817200,291.365082 278.726196,290.011230 280.347687,283.253937 
	C283.985535,268.093872 290.410706,254.029800 296.487000,239.782700 
	C302.043457,226.754440 312.473724,220.744049 325.454926,217.807098 
	C334.422516,215.778214 343.598511,215.385300 352.706940,214.862885 
	C357.215088,214.604340 359.248535,213.245163 360.070862,208.835327 
	C360.707092,205.423141 360.769501,202.265701 359.547668,199.056747 
	C358.833893,197.182068 357.525970,195.664764 355.520294,195.886734 
	C349.749481,196.525421 343.903473,197.025116 338.645203,199.886703 
	C335.733643,201.471191 334.468567,204.437057 332.950531,207.846161 
	C330.193817,204.180618 329.944305,200.472122 328.938721,197.093765 
	C328.231171,194.716660 327.099213,193.695801 324.545410,193.198822 
	C315.249847,191.389816 306.701385,193.221329 298.499146,197.581421 
	C296.767426,198.501968 295.077179,199.648315 292.467255,199.562347 
	C292.771851,196.854218 294.402771,194.918350 296.107941,193.401031 
	C301.151764,188.912842 297.611084,179.911407 289.704590,178.452515 
	C287.612305,178.066437 286.343842,179.004410 285.169708,180.711472 
	C282.623322,184.413757 278.989990,186.493195 274.244202,187.528854 
	C273.311707,184.292236 272.597198,181.414185 271.651855,178.614075 
	C269.694000,172.815048 266.702209,171.842148 261.625122,175.057114 
	C258.407104,177.094849 255.236893,179.220963 251.157593,179.383972 
	C247.453171,179.531982 245.676392,178.351944 245.600372,174.318787 
	C245.450974,166.394470 244.663727,165.623962 236.540359,165.342728 
	C231.111664,165.154785 226.726105,163.601517 224.237076,157.944550 
	C221.121628,161.769882 218.130997,165.219391 215.385406,168.853989 
	C206.339157,180.829315 193.594131,183.847534 179.567795,183.831161 
	C178.577347,183.830002 177.591003,183.531784 176.596344,183.446503 
	C161.866943,182.183960 161.866684,182.186951 155.814789,195.640137 
	C149.930847,208.719955 130.533981,212.034470 120.715683,201.689575 
	C118.521126,199.377304 118.085709,196.651489 118.637863,193.808197 
	C119.655449,188.568130 117.135681,185.278046 113.132927,182.555573 
	C107.325310,178.605469 100.899246,176.592529 93.925766,176.336578 
	C90.462654,176.209488 86.991028,176.314499 82.912498,176.314499 
	C91.403236,170.365845 109.603912,168.647537 115.370682,173.707199 
	C119.234543,177.097275 123.400536,180.195648 127.147026,183.742462 
	C129.178009,185.665237 131.436554,186.358124 134.003433,185.756424 
	C142.576645,183.746811 149.420227,178.877396 155.236816,172.452774 
	C155.978577,171.633469 156.542984,170.502121 156.051376,168.913422 
	C150.486832,169.211594 145.686325,171.072861 141.295059,174.771454 
	C134.520676,180.477234 122.218925,175.823898 120.671127,167.180038 
	C120.280426,164.998123 119.480644,163.007965 118.317154,161.181839 
	C116.618607,158.515900 114.605515,157.286545 111.218323,158.919113 
	C108.186928,160.380188 105.255196,162.389725 101.245209,162.808990 
	C102.427032,159.301605 105.408821,158.108261 107.354691,156.021713 
	C111.192711,151.906219 110.702644,147.831558 105.902679,144.946167 
	C103.256523,143.355499 99.897049,143.105164 97.134270,140.296295 
	C106.833389,135.525635 116.918686,133.815292 127.174561,131.998672 
	C114.979858,116.111420 101.122162,122.659927 86.894012,129.727463 
	C88.867500,123.504013 96.972595,118.955490 104.313103,118.701225 
	C118.117264,118.223053 132.013184,117.830788 145.571564,115.461060 
	C156.828979,113.493492 166.312820,107.407509 171.558670,96.436722 
	C172.970291,93.484604 172.854736,93.429352 171.718933,89.682167 
	C168.935379,89.441978 167.573853,91.666016 166.405121,93.427872 
	C159.136749,104.384872 148.818832,106.747932 136.664124,104.535049 
	C132.322525,103.744614 128.395111,104.281273 124.321815,106.822029 
	C114.554596,112.914436 100.277351,109.480766 94.221596,100.192368 
	C93.757477,99.480499 93.307549,98.805534 93.853920,97.637619 
	C97.153763,96.958557 99.723930,99.074463 102.430954,100.452034 
	C109.126869,103.859497 112.643753,103.680252 116.522415,97.518562 
	C121.068581,90.296471 127.319992,88.486252 135.165283,88.568451 
	C141.103409,88.630661 147.994812,90.833778 152.766235,87.581352 
	C157.298553,84.491882 158.368683,77.624992 160.976273,72.431557 
	C165.621262,63.180325 170.557083,54.128826 177.078064,46.037792 
	C181.739838,40.253590 186.941223,35.225487 194.924179,34.236713 
	C194.153015,30.526197 189.748795,29.898335 188.562607,25.661303 
	C193.951431,25.661303 198.856842,25.563850 203.755814,25.699545 
	C206.492157,25.775339 208.608932,25.152435 209.993256,22.572859 
	C210.522934,21.585823 211.395065,20.449982 212.372375,20.088804 
	C219.615082,17.412119 219.416962,11.919119 218.075760,5.850597 
	C217.792770,4.570151 217.910690,3.201102 217.921936,1.436438 
	C218.750000,1.000000 219.500000,1.000000 220.625000,0.999999 
M354.114960,137.785461 
	C354.677429,142.832458 354.677429,142.832458 359.268677,141.747681 
	C357.951202,139.532440 356.642365,137.583664 353.621613,136.420837 
	C351.202393,134.383163 350.512665,131.459442 349.643311,128.631821 
	C349.207855,127.215553 348.365601,126.229370 346.801056,126.502708 
	C345.307953,126.763550 345.447479,128.106766 345.333649,129.253555 
	C344.670807,135.932632 347.815857,138.746796 354.114960,137.785461 
M285.001831,136.094818 
	C279.913422,130.818756 274.880402,125.487579 269.712250,120.290840 
	C267.275940,117.841064 266.461182,115.417587 267.222168,111.802933 
	C268.263153,106.858078 270.211853,101.964119 269.703278,96.764275 
	C267.268921,95.647087 264.890259,96.193375 262.610046,95.909874 
	C260.161407,95.605438 257.587891,95.726532 255.573380,93.855637 
	C248.617798,87.395935 240.345627,83.176056 231.570419,79.826599 
	C229.941299,79.204773 228.797989,78.093399 227.865387,76.640144 
	C221.842484,67.254753 222.078384,54.679443 230.491882,47.491333 
	C234.415497,44.139172 237.665375,39.998402 241.405746,36.018089 
	C233.179016,32.454567 233.223114,32.482502 229.018448,39.120438 
	C227.754395,41.116020 226.643509,43.485802 223.823715,43.813225 
	C222.102234,41.586536 222.703766,39.435368 223.249771,37.383522 
	C225.192123,30.084379 229.208862,24.555613 236.362503,21.376730 
	C239.333328,20.056576 243.083817,18.713644 242.050598,13.600605 
	C239.321899,13.733270 236.422394,13.006621 234.922272,15.998035 
	C231.340027,23.141459 224.580841,27.700994 220.314880,34.274502 
	C219.699219,35.223164 218.807816,36.109829 217.232895,35.638889 
	C215.311600,34.223167 215.274216,31.184488 212.750702,29.691635 
	C210.519409,31.095932 208.526154,32.580639 208.319687,35.674252 
	C207.813782,43.255127 203.990936,48.648067 197.241501,52.045807 
	C192.610580,54.377056 189.477188,57.681538 189.757202,63.329861 
	C190.192734,72.115616 191.461075,80.841194 190.598694,89.719994 
	C190.173340,94.099236 190.386200,99.158325 197.240997,99.048088 
	C198.160583,99.033295 199.238174,100.175858 200.007507,101.001556 
	C203.186600,104.413612 206.251694,107.931610 209.408417,111.364952 
	C210.717300,112.788551 211.760559,114.407867 211.245911,116.303947 
	C209.305115,123.454247 211.417191,130.544327 211.512146,137.652313 
	C211.559875,141.225235 210.335373,143.118393 207.483902,144.819153 
	C203.839218,146.993042 199.960709,148.933594 196.810593,152.431351 
	C199.398743,154.114273 201.680878,154.654480 203.761948,152.468124 
	C210.483475,145.406647 219.040054,144.269638 228.112595,144.759811 
	C229.506058,144.835083 231.206253,144.567917 231.797104,146.483612 
	C231.216476,149.041702 227.779831,149.621689 227.701950,152.723190 
	C230.615051,155.699753 234.541748,155.495438 238.287674,155.658524 
	C249.715820,156.156097 251.153732,157.978806 248.552948,168.997162 
	C247.307648,174.272949 248.935867,176.061508 254.363037,175.638321 
	C258.988159,175.277664 261.456329,172.397675 263.165558,168.527603 
	C264.984100,164.409973 267.973114,162.596588 272.377808,164.119904 
	C276.817688,165.655396 278.432556,169.093872 277.925507,173.571732 
	C277.651367,175.992554 277.083954,178.380173 276.603607,181.032837 
	C279.241821,180.637192 280.424500,178.819504 282.125183,177.863953 
	C290.774597,173.004196 299.132416,176.713989 300.370544,185.985947 
	C300.659180,188.147583 300.115295,191.461960 303.239441,191.391693 
	C306.060089,191.328262 309.695007,190.331039 310.432526,186.992523 
	C311.557404,181.900375 314.984741,180.648209 319.229645,180.865631 
	C323.826294,181.101074 327.546967,182.970947 328.834198,188.053085 
	C329.525421,190.782196 330.638733,193.408340 331.621857,196.058594 
	C332.892883,199.484802 335.289856,200.239822 337.513519,197.394760 
	C341.888611,191.797028 347.120544,190.425720 353.657227,192.689529 
	C354.709747,193.054047 355.971771,192.850845 357.136749,192.847244 
	C363.927582,192.826233 369.859985,191.546478 371.222992,183.382614 
	C371.340515,182.678589 372.061890,182.075394 372.428772,181.534454 
	C374.565857,181.608047 375.892487,182.740509 376.989197,183.933533 
	C380.269714,187.502060 382.860382,186.300491 385.690826,183.250641 
	C388.286987,180.453217 390.941864,177.487000 394.140381,175.522278 
	C399.430481,172.272797 400.492523,167.859299 399.434509,162.319122 
	C399.184967,161.012390 399.091797,159.676636 398.887604,158.360291 
	C398.051361,152.969971 399.979919,149.263641 405.355804,147.601028 
	C406.149170,147.355667 406.942993,146.997284 406.838013,145.792343 
	C405.652893,143.590576 402.548615,144.284332 400.600159,141.505844 
	C405.217834,136.678589 403.719147,130.332016 403.746643,124.110596 
	C403.776764,117.285988 400.482330,111.977928 396.911469,106.625710 
	C398.650238,111.460068 398.367920,116.419624 398.514069,121.405479 
	C398.648224,125.984818 397.068420,128.573547 392.758514,129.924316 
	C387.210724,131.663055 383.786377,134.960541 382.245972,141.145233 
	C380.821320,146.865158 376.585541,151.954987 370.297852,152.662766 
	C362.243805,153.569382 356.572174,157.064087 351.617035,163.352798 
	C348.222748,167.660645 342.625458,169.124893 337.060608,168.150391 
	C332.027802,167.269089 331.981750,162.622650 331.043671,158.804367 
	C330.924408,158.319031 330.836700,157.824707 330.694366,157.346481 
	C329.785675,154.293396 327.952606,153.749695 325.446045,155.560608 
	C323.829651,156.728424 322.151550,157.904617 320.837433,159.377213 
	C318.257080,162.268723 315.439911,162.584137 311.881012,161.373535 
	C307.008484,159.716141 301.997345,158.457870 297.025055,157.104034 
	C289.730103,155.117813 288.142212,149.803802 293.103333,143.894226 
	C294.750793,141.931778 296.765778,140.208328 297.821564,137.605438 
	C293.544556,136.405472 289.439911,138.367554 285.001831,136.094818 
M257.870117,307.393524 
	C258.672943,311.240051 257.140747,313.207550 253.454910,312.134705 
	C248.764725,310.769562 247.520340,312.726013 247.053528,316.856354 
	C246.463196,322.079315 246.569397,327.532990 243.162827,332.082733 
	C242.734146,332.655243 242.441864,333.624207 243.680450,334.361938 
	C248.526382,332.903992 251.283356,328.813995 254.030396,324.943115 
	C257.684723,319.793732 260.830078,314.285706 264.399811,309.072632 
	C266.310211,306.282776 270.560425,303.862823 268.799286,300.375885 
	C267.266022,297.340149 262.754822,297.552307 259.265564,297.321838 
	C258.767426,297.288910 258.265289,297.308472 257.768372,297.265350 
	C251.885406,296.754822 246.342010,295.525818 241.711456,291.369415 
	C238.485840,288.474121 234.687729,286.308258 230.520966,284.936890 
	C214.937515,279.808136 200.933304,291.318420 204.609222,306.768311 
	C207.071091,317.115448 212.581146,325.816071 223.092209,330.159607 
	C224.878952,330.897949 226.759003,332.471649 228.679840,330.991058 
	C230.578964,329.527191 229.648117,327.317627 229.341385,325.395966 
	C228.636032,320.976959 227.428741,316.625702 227.682755,312.084656 
	C228.071060,305.143311 228.057159,305.147217 223.361679,300.209991 
	C223.203934,300.044128 223.341675,299.597198 223.341675,299.294434 
	C224.487396,297.998138 225.814865,298.465393 227.031204,298.946045 
	C232.025146,300.919250 237.322128,301.571899 242.533875,302.589630 
	C247.589813,303.576935 252.723022,304.280396 257.870117,307.393524 
M319.484253,226.898102 
	C316.798431,228.500412 314.112579,230.102707 311.015991,231.950073 
	C315.191681,234.181091 318.433136,236.825546 323.115723,236.944534 
	C327.612518,237.058838 331.696381,234.696854 337.316132,234.925140 
	C332.457947,241.043655 327.150757,243.615311 320.430084,243.340866 
	C314.770538,243.109787 309.558533,242.092926 307.940125,234.879593 
	C297.861237,246.717468 295.477081,261.083771 291.298492,274.633148 
	C290.227325,278.106445 292.685669,279.705872 296.516266,278.321320 
	C301.089996,276.668091 305.074982,273.882935 308.835693,270.838562 
	C324.928680,257.810913 339.446259,243.270020 351.362518,226.256699 
	C352.090118,225.217865 353.262512,224.288315 352.548950,222.205017 
	C341.452423,220.547485 330.691589,222.555191 319.484253,226.898102 
M380.334167,261.497589 
	C381.005066,267.396393 378.920074,273.622406 381.955658,280.191650 
	C384.609985,276.685455 383.288757,272.182098 385.640717,270.686829 
	C389.969696,267.934601 388.939697,264.280304 388.850525,260.672150 
	C388.668427,253.301025 388.048431,245.612167 392.479523,239.359375 
	C402.621124,225.048279 404.434540,209.022644 403.742401,192.224854 
	C403.586243,188.435379 401.872162,185.544632 399.727478,182.781662 
	C398.658600,181.404694 397.121887,179.392426 395.246277,181.078766 
	C393.168976,182.946442 395.512543,184.208420 396.673065,185.484482 
	C400.377258,189.557281 400.641510,192.810257 396.333862,196.123764 
	C390.385468,200.699387 389.036865,206.412964 389.987976,213.344299 
	C390.439240,216.633072 390.342560,219.994629 390.552826,223.319489 
	C390.808075,227.355606 389.570862,230.406509 385.611145,232.200668 
	C381.716888,233.965164 380.137085,237.168320 380.270813,241.501282 
	C380.466095,247.828384 380.330200,254.165710 380.334167,261.497589 
M162.243988,147.718994 
	C165.942322,145.830780 169.656540,143.972946 173.336075,142.048798 
	C185.857574,135.500900 193.089233,125.123253 195.494263,111.287338 
	C195.974487,108.524727 195.799393,105.978622 193.059174,104.270668 
	C191.432465,103.256752 189.933319,103.214226 188.488602,104.480591 
	C186.399567,106.311745 184.685181,108.362411 185.834778,111.398056 
	C188.914246,119.529655 185.346649,125.777374 179.751160,130.996414 
	C169.169632,140.866028 156.965240,143.559280 143.419464,137.701721 
	C138.166885,135.430359 133.458282,134.431229 128.569702,138.815262 
	C125.844810,141.258942 121.484200,141.420441 117.889221,145.191711 
	C132.700317,150.784851 146.695709,154.510681 162.243988,147.718994 
M344.925415,301.471008 
	C349.742645,294.891266 354.591156,288.337646 360.035065,282.248444 
	C361.338196,280.790802 362.669586,279.246246 361.083130,277.033447 
	C358.242981,277.847961 356.307495,279.683685 354.365448,281.451263 
	C345.541748,289.482208 339.556244,299.305695 335.917389,310.637543 
	C335.009796,313.463928 334.604431,316.850708 330.108582,317.951874 
	C328.033478,295.479797 337.925140,281.162292 358.760345,273.267914 
	C354.433258,270.711823 351.351868,270.839569 348.311188,273.537354 
	C341.389191,279.678711 335.876343,286.870972 331.318298,294.922424 
	C323.581543,308.588837 321.672546,323.775116 319.409546,338.884033 
	C319.208160,340.228394 318.693939,341.876831 320.980225,343.545349 
	C327.386139,328.749512 334.862457,314.756683 344.925415,301.471008 
M212.653625,153.132675 
	C210.522629,153.756027 208.449890,154.725464 207.334000,156.618103 
	C205.573425,159.604233 203.155151,159.940475 200.089630,159.457779 
	C196.233002,158.850510 192.694748,156.044357 188.341766,158.326782 
	C186.800842,159.134766 185.526291,156.916779 184.964874,155.332397 
	C184.357315,153.617737 184.058472,151.795853 183.575745,150.034225 
	C183.018143,147.999466 182.064468,146.421295 179.664261,146.087234 
	C174.847565,145.416885 162.347153,152.186035 159.837311,157.317200 
	C166.656815,158.828018 172.356125,163.225174 179.505066,163.705582 
	C184.130966,164.016418 188.778290,164.346970 193.136337,166.263931 
	C195.246384,167.192047 197.506821,167.140289 199.267715,165.573700 
	C205.707413,159.844513 213.644257,157.300140 221.964600,154.963547 
	C219.175308,152.787628 216.523926,151.714249 212.653625,153.132675 
M275.607086,382.290649 
	C278.150452,372.261810 282.759369,363.665802 292.116760,358.317383 
	C293.790039,357.360962 294.785706,355.722992 295.256531,353.944214 
	C295.963257,351.274200 297.274078,348.187500 293.839661,346.443085 
	C290.417511,344.704926 289.140076,347.751648 287.665863,349.857208 
	C282.270111,357.563843 279.189453,366.431427 275.219788,374.855042 
	C274.542572,376.292053 274.326477,378.283081 271.525177,378.965515 
	C274.891144,365.993011 280.529663,354.693085 285.850067,343.297150 
	C273.322113,365.003143 265.965240,388.368683 263.526367,413.311310 
	C269.825226,404.107330 272.492157,393.541260 275.607086,382.290649 
M341.936127,60.965446 
	C341.936127,62.925358 341.936127,64.885269 341.936127,66.618919 
	C343.685913,68.763702 348.115234,68.096725 347.315521,71.918739 
	C345.866699,78.843117 348.303955,85.821716 346.700470,92.692017 
	C346.362091,94.141884 346.383331,95.343056 348.029663,95.934998 
	C349.621948,96.507538 350.469482,95.469444 351.392883,94.461090 
	C352.749725,92.979340 352.681946,90.638451 355.014709,89.040154 
	C359.195770,94.482925 363.517731,99.778976 364.308197,106.979591 
	C364.563751,109.307320 364.888702,111.235451 368.151337,111.356049 
	C369.676910,106.168259 370.801849,101.887962 366.447998,96.716507 
	C361.568695,90.920898 355.296509,85.948349 354.147003,76.976151 
	C353.623260,72.888153 352.027527,69.170540 354.314178,64.833755 
	C345.724335,63.829536 344.802582,55.095989 339.333649,50.696262 
	C336.673615,55.137093 339.321045,57.659836 341.936127,60.965446 
M305.079987,103.120804 
	C299.282135,104.384995 293.464935,105.712929 290.723145,98.526085 
	C283.283539,99.408073 282.169861,106.053734 277.284821,110.535309 
	C282.602814,110.470779 286.829834,111.759094 290.614258,109.763954 
	C296.174072,106.832825 300.650391,107.002525 306.003998,111.097649 
	C306.520081,112.671173 303.840485,114.308197 305.828369,115.632034 
	C308.623169,117.493217 311.748535,117.186760 315.274780,116.117851 
	C314.528198,113.228119 313.546173,110.572121 313.200958,107.835785 
	C312.611328,103.161720 309.912994,102.164146 305.079987,103.120804 
M290.572815,67.342361 
	C281.987640,64.055908 273.885284,68.964340 269.757599,79.981148 
	C271.359894,81.292786 273.061523,80.753899 274.243408,79.636368 
	C278.786987,75.340218 284.239960,72.704742 289.933716,70.397644 
	C290.979675,69.973816 292.819122,69.443573 290.572815,67.342361 
M308.187561,46.334419 
	C310.307953,47.807289 311.384247,50.116699 312.873871,52.103310 
	C314.035095,53.651924 315.639069,53.111839 316.905762,52.298008 
	C317.857483,51.686527 317.909729,50.270702 316.957977,49.740746 
	C310.922241,46.379890 312.282043,40.420132 311.728027,35.175713 
	C311.237823,30.535755 309.655731,29.580481 303.727783,31.666601 
	C308.772186,34.923195 307.594971,39.291924 306.661560,43.692101 
	C306.530365,44.310513 307.317444,45.123718 308.187561,46.334419 
M298.916412,15.722346 
	C297.775940,16.326937 296.060791,15.740135 294.893677,17.646374 
	C300.010742,18.527140 303.892059,20.816938 307.399628,23.987917 
	C310.329132,26.636280 312.980713,25.542475 315.312317,22.798246 
	C312.582642,20.074215 306.365417,17.273081 298.916412,15.722346 
M306.869385,133.997955 
	C308.329285,134.257858 309.785431,134.702530 311.250000,134.732376 
	C313.220520,134.772507 315.968414,135.920609 316.489471,132.739868 
	C316.943451,129.968536 316.186218,127.318558 312.991302,126.493393 
	C309.864624,125.685852 306.799805,124.694458 303.775818,123.523056 
	C305.919617,126.274658 309.837158,125.684601 312.288696,128.236008 
	C309.534241,130.601685 305.635223,129.654465 303.237274,132.235565 
	C303.852875,133.593338 305.054840,133.622391 306.869385,133.997955 
M261.956390,73.897575 
	C262.963043,73.165482 264.838135,72.525002 263.645752,71.021271 
	C262.476196,69.546280 260.664215,68.160507 258.464264,69.084068 
	C255.630539,70.273674 252.890167,71.685654 249.811783,73.142822 
	C253.633972,77.014542 257.450409,76.018143 261.956390,73.897575 
M271.600739,32.500393 
	C269.972565,34.421112 268.344391,36.341831 266.321625,38.728020 
	C272.473053,38.002743 276.764404,34.003296 282.071014,32.312450 
	C278.834869,32.312450 275.598755,32.312450 271.600739,32.500393 
M283.538239,19.461639 
	C280.469849,18.872831 277.672363,16.196692 274.115509,18.031841 
	C277.676727,23.588699 278.562592,23.827652 286.162811,21.260744 
	C285.380768,20.664631 284.758484,20.190300 283.538239,19.461639 
z"/>
<path fill="#000000" opacity="1.000000" stroke="none" 
	d="
M266.742889,210.672424 
	C250.892242,197.871048 233.299423,188.645340 213.012604,184.624451 
	C223.944031,181.068604 234.722992,179.761749 245.108963,185.504364 
	C255.733292,191.378769 264.538788,200.033432 275.311951,205.711578 
	C279.233307,207.778397 283.269012,209.628311 287.330261,211.615219 
	C282.898987,215.758820 277.936035,215.645309 267.477722,211.154831 
	C267.002167,210.953217 266.742889,210.672424 266.742889,210.672424 
z"/>
<path fill="#000000" opacity="1.000000" stroke="none" 
	d="
M267.135193,211.090393 
	C267.470062,213.390167 266.306091,214.485199 264.451111,215.388824 
	C251.705490,221.597702 228.608719,212.316711 223.837082,198.985016 
	C223.562317,198.217331 223.364548,197.367737 224.649521,195.803482 
	C236.329514,206.110168 249.390381,213.453201 266.298157,210.655853 
	C266.742889,210.672424 267.002167,210.953217 267.135193,211.090393 
z"/>
<path fill="#000000" opacity="1.000000" stroke="none" 
	d="
M235.180603,139.846252 
	C233.056198,137.946716 230.763016,136.555054 229.485596,134.524429 
	C227.842636,131.912659 226.759064,128.785873 230.233612,125.650993 
	C224.763412,125.598488 221.404877,123.080193 218.817825,119.369316 
	C217.698013,117.763046 217.219620,115.914612 218.604752,114.296677 
	C219.933121,112.745049 221.864273,113.217773 223.191849,114.148849 
	C235.225723,122.588631 249.451050,124.012428 263.236420,126.879028 
	C271.183472,128.531586 277.907166,132.201309 282.541016,139.104599 
	C283.357086,140.320343 284.532715,141.660706 283.425049,143.170639 
	C282.337433,144.653229 280.730316,144.057236 279.288666,143.621216 
	C273.528351,141.879059 267.959961,139.618057 262.904144,136.368057 
	C254.717102,131.105255 245.536224,129.021439 236.294449,127.361298 
	C240.439056,138.676254 252.279968,141.352753 260.150543,148.535995 
	C261.130371,149.430206 262.367218,150.083908 263.205322,151.083527 
	C264.850372,153.045624 266.530304,155.654800 264.357361,157.706619 
	C262.576630,159.388107 259.746399,159.149826 257.458069,157.334885 
	C250.155701,151.543121 242.799026,145.819855 235.180603,139.846252 
z"/>
<path fill="#000000" opacity="1.000000" stroke="none" 
	d="
M256.894928,99.091423 
	C258.737183,98.870972 260.396576,98.395660 261.024139,100.371468 
	C261.430206,101.649910 260.704773,102.908058 259.673615,103.326332 
	C255.246353,105.122253 256.138153,108.777664 256.293945,112.223778 
	C256.559753,118.103622 253.656647,120.678406 248.626678,118.013313 
	C241.754440,114.372101 234.319687,112.708061 227.118271,110.200684 
	C219.951065,107.705200 219.009689,102.983543 223.245621,96.759987 
	C230.855835,85.578789 244.520737,90.154976 252.093338,96.577354 
	C253.429199,97.710304 254.199310,99.751839 256.894928,99.091423 
z"/>
<path fill="#000000" opacity="1.000000" stroke="none" 
	d="
M385.593689,145.949982 
	C385.489746,145.425980 385.447845,145.260895 385.367004,145.117828 
	C383.930542,142.575699 382.767334,140.022614 384.932831,137.279526 
	C386.351868,135.482010 387.979401,136.282883 389.378448,137.125504 
	C392.355865,138.918701 394.727081,141.325165 394.170227,145.137878 
	C393.630096,148.835861 391.883301,152.024094 389.088379,154.608978 
	C385.065704,158.329346 381.071655,162.081482 377.108093,165.864807 
	C373.970337,168.859833 371.206848,171.851303 371.057587,176.789093 
	C370.941376,180.633942 367.297638,182.157364 364.022034,182.829712 
	C360.834808,183.483932 358.326355,181.986298 356.758270,178.905197 
	C353.608490,172.716248 353.918274,168.624023 359.116638,164.233551 
	C365.894226,158.509308 372.329803,152.108261 381.610168,150.260254 
	C383.520477,149.879883 385.296661,148.653671 385.593689,145.949982 
z"/>
<path fill="#000000" opacity="1.000000" stroke="none" 
	d="
M208.776337,48.576820 
	C210.250763,46.826572 209.440308,43.384399 212.823502,44.030949 
	C215.982468,44.634647 218.917496,45.492260 219.502213,49.580959 
	C220.181229,54.329258 220.643784,58.808830 216.758163,62.589256 
	C214.480484,64.805260 213.896057,67.713348 214.299271,71.167496 
	C218.541885,69.955353 219.162582,72.879738 219.119614,75.836960 
	C219.064240,79.648590 218.574448,83.460007 218.148621,87.257713 
	C217.915375,89.337791 216.515106,90.078583 214.560898,89.598877 
	C211.399841,88.822922 207.494492,83.156792 208.938202,80.414352 
	C211.908279,74.772507 209.167297,70.481407 206.619843,65.999985 
	C201.598206,57.166027 201.645569,56.526875 208.776337,48.576820 
z"/>
<path fill="#000000" opacity="1.000000" stroke="none" 
	d="
M302.187439,164.821411 
	C305.651031,166.888748 308.841522,168.786026 312.474060,169.450211 
	C315.411682,169.987366 318.619751,170.473877 319.752380,166.354233 
	C319.911987,165.773743 320.344971,165.069809 320.848816,164.818054 
	C322.712860,163.886749 325.217743,163.997162 325.211426,166.159805 
	C325.202271,169.298004 334.479584,167.636719 328.470154,173.710266 
	C324.981781,177.235840 322.721893,178.550461 318.766602,175.137222 
	C317.003510,173.615753 314.578583,174.280792 312.476379,174.394012 
	C304.250092,174.837006 297.745636,171.045135 291.620270,166.226456 
	C289.864227,164.844986 288.918945,163.015396 290.309021,161.035141 
	C291.696655,159.058350 293.894043,159.391220 295.704773,160.410431 
	C297.867706,161.627838 299.829742,163.202164 302.187439,164.821411 
z"/>
<path fill="#000000" opacity="1.000000" stroke="none" 
	d="
M199.364014,60.989479 
	C198.497025,67.766113 203.436234,72.455360 204.148773,78.437401 
	C204.976273,85.384430 202.610962,88.808006 195.688202,89.234985 
	C195.473526,88.996384 195.062332,88.740913 195.078552,88.516312 
	C195.714554,79.709358 192.373001,71.135834 193.693344,62.242237 
	C194.196487,58.853294 195.405380,56.356873 198.397751,54.214375 
	C199.769775,56.353523 199.174225,58.528976 199.364014,60.989479 
z"/>
<path fill="#000000" opacity="1.000000" stroke="none" 
	d="
M385.880005,162.873230 
	C386.299316,162.319504 386.486816,162.039749 386.716461,161.800430 
	C388.792664,159.636566 390.850555,156.992020 394.294250,158.762817 
	C396.237610,159.762131 395.560547,166.274658 393.073669,168.310516 
	C390.158508,170.696976 388.064850,173.583832 386.093048,176.692886 
	C385.415985,177.760468 384.256256,178.602875 383.162048,179.307419 
	C381.146149,180.605408 378.975952,180.658920 377.157379,178.999832 
	C375.029053,177.058121 376.131226,174.825241 377.463196,173.177795 
	C380.174255,169.824539 383.353088,166.852173 385.880005,162.873230 
z"/>
<path fill="#000000" opacity="1.000000" stroke="none" 
	d="
M265.078705,140.538086 
	C269.653290,143.301788 273.941010,145.787491 277.704956,149.084091 
	C279.609314,150.752045 280.530701,152.612656 280.313507,155.149307 
	C280.149139,157.068604 279.755463,158.861435 277.857025,159.674026 
	C275.710815,160.592697 274.393799,159.079010 273.394165,157.538971 
	C270.298950,152.770386 266.333191,148.837616 262.087036,145.117188 
	C260.915527,144.090714 259.311157,142.711563 260.315796,140.900620 
	C261.344421,139.046494 263.158356,139.808899 265.078705,140.538086 
z"/>
<path fill="#000000" opacity="1.000000" stroke="none" 
	d="
M346.439819,173.103806 
	C348.286530,174.296707 349.126740,175.721680 349.180908,177.460312 
	C349.256012,179.870178 350.045319,182.903320 346.966278,183.878693 
	C344.243561,184.741180 342.853424,182.538513 341.903351,180.243240 
	C341.660339,179.656158 341.329865,178.894394 340.830627,178.662186 
	C339.046875,177.832596 338.244568,176.691681 338.989624,174.732407 
	C339.728668,172.788956 341.387329,172.642487 343.086945,172.658432 
	C344.074677,172.667709 345.060944,172.832336 346.439819,173.103806 
z"/>
<path fill="#000000" opacity="1.000000" stroke="none" 
	d="
M200.553406,91.685776 
	C202.221649,88.663895 203.878891,88.346329 206.173538,90.626892 
	C207.911453,92.354141 209.990585,93.738045 211.872742,95.337997 
	C209.601593,98.768829 207.624054,99.837791 204.903641,98.592514 
	C202.138977,97.326973 199.533905,95.816994 200.553406,91.685776 
z"/>
</svg>