<svg xmlns="http://www.w3.org/2000/svg" width="1920" height="1080" viewBox="0 0 1920 1080" version="1.1">
	<path d="M 834 447.641 C 831.296 448.703, 830 451.311, 830 455.691 C 830 462.010, 832.695 464.380, 839.175 463.757 C 841.893 463.496, 844.654 462.746, 845.309 462.091 C 846.840 460.560, 846.862 450.462, 845.337 448.937 C 844.026 447.626, 836.291 446.742, 834 447.641 M 892.280 448.020 C 889.215 449.254, 888.612 452.627, 889.338 464.491 C 889.682 470.108, 889.710 474.957, 889.400 475.267 C 889.091 475.576, 887.236 474.743, 885.279 473.415 C 879.248 469.322, 871.369 470.775, 864.311 477.281 C 857.697 483.377, 855.559 488.072, 855.559 496.500 C 855.559 505.016, 857.825 509.916, 864.466 515.762 C 871.610 522.049, 881.706 523.291, 886.968 518.529 C 888.674 516.985, 888.959 517.050, 891.471 519.562 C 893.780 521.871, 894.730 522.165, 898.316 521.684 C 906.115 520.638, 906 521.204, 906 483.889 C 906 452.333, 905.919 450.919, 904 449 C 901.861 446.861, 896.314 446.397, 892.280 448.020 M 785.637 451.465 C 774.103 455.577, 768.548 470.112, 774.314 481.093 C 777.093 486.384, 782.985 489.943, 793.875 492.908 C 802.090 495.145, 805 497.171, 805 500.655 C 805 504.423, 801.625 507, 796.690 507 C 793.030 507, 791.586 506.322, 787.109 502.500 C 783.919 499.777, 780.851 498, 779.341 498 C 775.880 498, 771 503.087, 771 506.695 C 771 510.804, 776.064 516.393, 782.770 519.686 C 787.506 522.012, 789.801 522.500, 796 522.500 C 802.729 522.500, 804.166 522.132, 809.982 518.920 C 818.230 514.365, 821.512 508.829, 821.478 499.527 C 821.435 487.503, 816.744 482.818, 800.885 478.958 C 794.855 477.490, 791.868 476.211, 790.250 474.403 C 787.531 471.365, 787.495 470.845, 789.809 467.988 C 792.458 464.716, 798.400 464.857, 803.390 468.309 C 808.379 471.761, 810.150 471.696, 813.923 467.923 C 818.785 463.061, 818.980 460.286, 814.735 456.396 C 808.436 450.624, 794.582 448.276, 785.637 451.465 M 991.969 471.536 C 986.028 473.368, 979.730 478.861, 976.921 484.663 C 974.154 490.380, 973.889 501.469, 976.383 507.213 C 978.610 512.340, 983.531 517.701, 988.405 520.309 C 991.873 522.165, 994.107 522.500, 1003 522.500 C 1019.343 522.500, 1024.944 518.494, 1020.390 510.060 C 1018.235 506.069, 1016.408 505.782, 1007.769 508.073 C 1004.066 509.056, 1002.176 509.070, 999.064 508.137 C 995.084 506.945, 992 504.671, 992 502.929 C 992 502.409, 997.257 502, 1003.935 502 C 1010.499 502, 1017.001 501.570, 1018.383 501.045 C 1022.295 499.557, 1024.531 495.315, 1024.290 489.835 C 1023.630 474.772, 1008.768 466.357, 991.969 471.536 M 1035.314 471.926 C 1033.561 473.008, 1031.620 474.841, 1031 476 C 1029.793 478.256, 1030.685 480.007, 1045.672 504.792 L 1051.895 515.084 1047.535 524.478 C 1045.137 529.645, 1042.868 534.839, 1042.493 536.021 C 1041.630 538.740, 1044.969 542.505, 1049.598 544.032 C 1055.648 546.029, 1056.549 544.839, 1066.663 521.500 C 1068.570 517.100, 1073.768 505.444, 1078.213 495.597 C 1084.216 482.302, 1086.046 477.296, 1085.321 476.147 C 1083.519 473.291, 1079.318 470.828, 1075.966 470.663 C 1071.796 470.458, 1069.382 473.694, 1065.016 485.344 C 1061.456 494.844, 1060.590 496.551, 1059.431 496.360 C 1058.963 496.283, 1056.895 493, 1054.835 489.065 C 1052.776 485.130, 1049.382 479.343, 1047.295 476.205 C 1042.970 469.703, 1040.401 468.785, 1035.314 471.926 M 834 471.694 C 830.312 473.012, 830 474.947, 830 496.500 C 830 520.523, 830.111 520.920, 837.073 521.705 C 840.552 522.097, 842.067 521.767, 844.012 520.192 C 846.469 518.203, 846.503 517.965, 846.757 500.839 C 847.100 477.747, 846.614 473.601, 843.398 472.135 C 840.817 470.960, 836.608 470.762, 834 471.694 M 919 471.729 C 918.175 472.043, 917.169 472.795, 916.765 473.400 C 916.361 474.005, 916.024 484.502, 916.015 496.727 L 916 518.954 918.521 520.606 C 921.663 522.664, 928.839 521.940, 930.715 519.375 C 931.598 518.168, 932 513.748, 932 505.263 C 932 493.480, 932.113 492.796, 934.455 490.455 C 937.287 487.623, 943.384 487.100, 946.559 489.417 C 948.267 490.663, 948.560 492.460, 949 504.383 C 949.593 520.458, 950.148 521.500, 958.116 521.500 C 965.386 521.500, 966 520.282, 966 505.858 C 966 499.390, 965.509 491.807, 964.908 489.006 C 962.837 479.348, 953.504 471, 944.777 471 C 940.523 471, 937.717 472.142, 934.281 475.271 L 932.061 477.291 931.107 474.782 C 930.583 473.402, 929.407 471.986, 928.495 471.636 C 926.515 470.876, 921.101 470.929, 919 471.729 M 994.849 487.844 C 990.222 491.978, 991.390 494, 998.404 494 C 1005.226 494, 1009 492.639, 1009 490.180 C 1009 484.652, 1000.071 483.178, 994.849 487.844 M 874.174 490.314 C 869.058 495.761, 873.038 505, 880.500 505 C 887.870 505, 891.625 496.607, 886.927 490.635 C 884.114 487.058, 877.393 486.889, 874.174 490.314 M 911.344 532.943 C 907.302 534.674, 907.028 545.874, 910.977 547.988 C 914.343 549.789, 920.798 549.202, 923.116 546.884 C 924.867 545.133, 925.150 543.915, 924.757 539.825 C 924.496 537.107, 923.808 534.408, 923.228 533.828 C 921.790 532.390, 913.993 531.809, 911.344 532.943 M 785.637 536.465 C 774.108 540.575, 768.553 555.100, 774.307 566.093 C 777.051 571.336, 784.962 576.082, 794.242 578.051 C 802.204 579.741, 805.385 582.308, 804.582 586.398 C 803.786 590.452, 801.553 592, 796.499 592 C 793.065 592, 791.504 591.252, 787.109 587.500 C 783.919 584.777, 780.851 583, 779.341 583 C 775.880 583, 771 588.087, 771 591.695 C 771 595.804, 776.064 601.393, 782.770 604.686 C 790.360 608.414, 801.069 608.620, 808.101 605.174 C 817.988 600.330, 822.936 591.443, 821.512 581.089 C 820.159 571.252, 814.601 566.841, 799.242 563.415 C 793.843 562.210, 791.474 561.147, 789.992 559.263 C 787.511 556.109, 787.512 555.488, 790 553 C 792.873 550.127, 798.955 550.351, 803.595 553.500 C 808.389 556.753, 810.193 556.653, 813.923 552.923 C 818.785 548.061, 818.980 545.286, 814.735 541.396 C 808.436 535.624, 794.582 533.276, 785.637 536.465 M 942.571 540.571 C 941.445 541.698, 941 544.106, 941 549.071 C 941 555.642, 940.881 556, 938.691 556 C 934.252 556, 932.615 558.257, 932.555 564.458 C 932.495 570.678, 934.163 573, 938.691 573 C 940.923 573, 941 573.285, 941 581.557 C 941 593.082, 942.429 598.291, 946.592 601.946 C 951.434 606.198, 959.452 608.058, 965.707 606.381 C 968.439 605.648, 970.418 600.179, 969.486 595.937 C 968.780 592.723, 965.962 591, 961.410 591 C 958.210 591, 957 587.827, 957 579.435 L 957 573 962.500 573 C 969.807 573, 972 570.928, 972 564.023 C 972 557.747, 969.420 555.606, 962.519 556.155 C 960.034 556.353, 957.983 556.286, 957.962 556.007 C 957.940 555.728, 957.828 552.531, 957.712 548.902 C 957.589 545.073, 956.924 541.611, 956.128 540.652 C 954.273 538.420, 944.780 538.363, 942.571 540.571 M 834.643 556.028 C 830.643 557.227, 828 559.886, 828 562.712 C 828 566.594, 843.008 602.236, 845.701 604.750 C 848.694 607.543, 851.948 607.616, 855.319 604.964 C 857.585 603.181, 859.794 597.810, 862.605 587.250 C 863.492 583.916, 865.745 586.659, 867.945 593.750 C 871.576 605.450, 877.290 609.835, 882.932 605.250 C 885.011 603.561, 886.883 599.471, 896.667 575.243 C 902.043 561.932, 901.949 559.775, 895.871 557.053 C 888.667 553.828, 886.106 555.904, 882.163 568.166 C 878.329 580.086, 877.893 580.039, 874.071 567.286 C 870.879 556.639, 865.325 553.184, 859.545 558.250 C 857.035 560.449, 853 570.070, 853 573.853 C 853 574.899, 852.356 576.289, 851.570 576.942 C 850.428 577.890, 849.924 577.726, 849.070 576.130 C 848.481 575.031, 848 573.549, 848 572.837 C 848 569.828, 842.648 557.867, 840.688 556.494 C 838.311 554.829, 838.575 554.850, 834.643 556.028 M 1053.640 556.632 C 1047.446 558.534, 1039.941 565.828, 1038.222 571.616 C 1036.679 576.812, 1036.650 586.100, 1038.161 591.142 C 1039.676 596.201, 1045.160 602.524, 1050.357 605.207 C 1059.459 609.905, 1080.592 608.183, 1083.166 602.534 C 1084.464 599.686, 1083.715 596.105, 1081.163 592.953 C 1079.303 590.655, 1079.292 590.655, 1073.334 592.326 C 1065.357 594.564, 1061.940 594.436, 1057.975 591.750 C 1051.915 587.644, 1052.809 587.183, 1067.532 586.829 C 1081.070 586.503, 1081.197 586.478, 1083.589 583.694 C 1085.503 581.467, 1086 579.758, 1086 575.404 C 1086 559.798, 1071.229 551.230, 1053.640 556.632 M 911.305 556.957 C 908.205 558.281, 907.828 561.592, 908.187 584.332 C 908.478 602.801, 908.638 604.268, 910.500 605.662 C 913.252 607.721, 921.852 606.923, 923.668 604.440 C 925.569 601.840, 925.588 561.186, 923.689 558.590 C 922.168 556.509, 914.669 555.521, 911.305 556.957 M 982.750 557.080 C 981.400 557.866, 981 559.432, 981 563.927 C 981 571.677, 982.059 572.467, 992.653 572.623 C 997.245 572.690, 1000.945 573.140, 1000.877 573.623 C 1000.809 574.105, 995.916 578.853, 990.004 584.173 C 979.008 594.069, 977.225 596.832, 978.935 601.330 C 980.933 606.583, 982.788 607, 1004.157 607 C 1014.999 607, 1024.959 606.586, 1026.291 606.079 C 1030.923 604.318, 1030.475 591.897, 1025.734 590.626 C 1024.505 590.297, 1019.337 590.021, 1014.250 590.014 C 1009.163 590.006, 1005.016 589.663, 1005.036 589.250 C 1005.056 588.837, 1006.648 587.306, 1008.572 585.847 C 1010.497 584.388, 1015.656 579.826, 1020.036 575.709 C 1027.171 569.002, 1028 567.842, 1028 564.566 C 1028 562.017, 1027.257 560.166, 1025.545 558.455 C 1023.107 556.016, 1022.967 556, 1003.795 556.030 C 992.559 556.048, 983.769 556.487, 982.750 557.080 M 1097.223 557.557 C 1095.038 559.087, 1095 559.500, 1095 581.500 C 1095 603.500, 1095.038 603.913, 1097.223 605.443 C 1100.290 607.592, 1106.266 607.415, 1109.139 605.091 C 1111.381 603.277, 1111.516 602.486, 1111.828 589.341 C 1112.240 571.972, 1112.529 571.498, 1122.138 572.445 C 1128.505 573.072, 1128.863 572.989, 1130.888 570.415 C 1132.295 568.626, 1133 566.292, 1133 563.422 C 1133 557.885, 1130.551 556, 1123.354 556 C 1119.227 556, 1117.523 556.531, 1115.097 558.572 C 1112.066 561.123, 1110 561.113, 1110 558.548 C 1110 555.681, 1100.908 554.975, 1097.223 557.557 M 1056.849 572.844 C 1052.505 576.725, 1053.427 579, 1059.344 579 C 1069.335 579, 1073.313 576.213, 1069.435 571.928 C 1066.714 568.922, 1060.753 569.355, 1056.849 572.844" stroke="none" fill="#000000" fill-rule="evenodd"/>
</svg>